<?xml version="1.0" encoding="UTF-8" standalone="no"?>
<svg
   xmlns:dc="http://purl.org/dc/elements/1.1/"
   xmlns:cc="http://creativecommons.org/ns#"
   xmlns:rdf="http://www.w3.org/1999/02/22-rdf-syntax-ns#"
   xmlns:svg="http://www.w3.org/2000/svg"
   xmlns="http://www.w3.org/2000/svg"
   xmlns:sodipodi="http://sodipodi.sourceforge.net/DTD/sodipodi-0.dtd"
   xmlns:inkscape="http://www.inkscape.org/namespaces/inkscape"
   inkscape:version="1.0 (4035a4f, 2020-05-01)"
   sodipodi:docname="immunize.svg"
   viewBox="0 0 678.22668 374.27099"
   height="374.271"
   width="678.22668"
   xml:space="preserve"
   id="svg833"
   version="1.1"><metadata
     id="metadata839"><rdf:RDF><cc:Work
         rdf:about=""><dc:format>image/svg+xml</dc:format><dc:type
           rdf:resource="http://purl.org/dc/dcmitype/StillImage" /><dc:title></dc:title></cc:Work></rdf:RDF></metadata><defs
     id="defs837"><filter
       height="4.6735539"
       y="-1.836777"
       width="2.7821584"
       x="-0.89107913"
       id="filter1527"
       style="color-interpolation-filters:sRGB"
       inkscape:collect="always"><feGaussianBlur
         id="feGaussianBlur1529"
         stdDeviation="7.6187268"
         inkscape:collect="always" /></filter><filter
       height="1.279581"
       y="-0.13979046"
       width="1.1462013"
       x="-0.073100649"
       id="filter1575"
       style="color-interpolation-filters:sRGB"
       inkscape:collect="always"><feGaussianBlur
         id="feGaussianBlur1577"
         stdDeviation="2.82534"
         inkscape:collect="always" /></filter><filter
       height="1.1529351"
       y="-0.076467529"
       width="1.1863571"
       x="-0.0931786"
       id="filter1583"
       style="color-interpolation-filters:sRGB"
       inkscape:collect="always"><feGaussianBlur
         id="feGaussianBlur1585"
         stdDeviation="8.2271427"
         inkscape:collect="always" /></filter><filter
       height="6.4096484"
       y="-2.7048242"
       width="2.5420713"
       x="-0.77103567"
       id="filter1591"
       style="color-interpolation-filters:sRGB"
       inkscape:collect="always"><feGaussianBlur
         id="feGaussianBlur1593"
         stdDeviation="40.787787"
         inkscape:collect="always" /></filter><filter
       height="2.8895032"
       y="-0.94475162"
       width="4.2884603"
       x="-1.6442301"
       id="filter6416"
       style="color-interpolation-filters:sRGB"
       inkscape:collect="always"><feGaussianBlur
         id="feGaussianBlur6418"
         stdDeviation="36.853186"
         inkscape:collect="always" /></filter></defs><sodipodi:namedview
     inkscape:current-layer="g843"
     inkscape:window-maximized="0"
     inkscape:window-y="23"
     inkscape:window-x="0"
     inkscape:cy="129.74728"
     inkscape:cx="311.85792"
     inkscape:zoom="1.7457358"
     showgrid="false"
     id="namedview835"
     inkscape:window-height="1097"
     inkscape:window-width="2023"
     inkscape:pageshadow="2"
     inkscape:pageopacity="0"
     guidetolerance="10"
     gridtolerance="10"
     objecttolerance="10"
     borderopacity="1"
     bordercolor="#666666"
     pagecolor="#ffffff" /><g
     style="display:inline"
     transform="matrix(1.3333333,0,0,-1.3333333,-87.069309,375.58821)"
     inkscape:label="ink_ext_XXXXXX"
     inkscape:groupmode="layer"
     id="g841"><g
       transform="scale(0.1)"
       id="g843"><path
         id="path845"
         style="fill:#e6e8f6;fill-opacity:1;fill-rule:evenodd;stroke:none"
         d="m 3082.78,500.148 c 307.74,-185.859 731.68,8.961 1033.04,-199.457 301.37,-208.4215 911.51,-333.5621 1332.15,-44.761 518.41,355.941 20.49,778.76 66.52,1136.47 46.04,357.71 353.59,908.44 -77.41,1197.56 -395.31,265.2 -769.12,-253.6 -1299.48,-286.61 C 3577.96,2268.53 3078.31,2153.48 2823.11,1888.63 2447.26,1498.55 2485.76,860.711 3082.78,500.148" /><path
         id="path847"
         style="fill:none;stroke:#ffffff;stroke-width:5.669;stroke-linecap:butt;stroke-linejoin:miter;stroke-miterlimit:22.9256;stroke-dasharray:none;stroke-opacity:1"
         d="M 2935,1781.9 C 2574.84,1239.26 2724.94,729.18 3110.94,477.109 c 280.53,-183.187 751.91,-26.379 1026.63,-231.8 274.71,-205.4184 792.55,-377.118 1175.98,-92.469 472.57,350.82 18.67,767.539 60.64,1120.11 41.97,352.56 465.29,908.29 73.42,1202.75 -391.95,294.53 -810.06,-187.29 -1290.19,-256.57 -480.12,-69.3 -884.27,72.26 -1222.42,-437.23 z" /><path
         id="path849"
         style="fill:#e6e8f6;fill-opacity:1;stroke:#ffffff;stroke-width:5.669;stroke-linecap:butt;stroke-linejoin:miter;stroke-miterlimit:22.9256;stroke-dasharray:none;stroke-opacity:1"
         d="m 4986,858.422 h -479.6 c -45.03,0 -81.88,-36.84 -81.88,-81.871 v -0.012 c 0,-45.027 36.85,-81.879 81.88,-81.879 H 4986 c 45.04,0 81.88,36.852 81.88,81.879 v 0.012 c 0,45.031 -36.84,81.871 -81.88,81.871 z" /><path
         id="path851"
         style="fill:none;stroke:#ffffff;stroke-width:5.669;stroke-linecap:butt;stroke-linejoin:miter;stroke-miterlimit:22.9256;stroke-dasharray:none;stroke-opacity:1"
         d="m 5146.7,1599.33 h -286.32 c -55.56,0 -105.34,-45.45 -110.64,-101.02 l -52.75,-553.97 c -5.3,-55.559 35.83,-101.008 91.39,-101.008 h 286.32 c 55.56,0 105.34,45.449 110.63,101.008 l 52.76,553.97 c 5.29,55.57 -35.83,101.02 -91.39,101.02 z" /><path
         id="path853"
         style="fill:#ffffff;fill-opacity:1;fill-rule:evenodd;stroke:none"
         d="M 5622.22,133.422 V 1050.45 H 5142.03 V 133.422 h 480.19" /><path
         id="path855"
         style="fill:#e6e8f6;fill-opacity:1;fill-rule:evenodd;stroke:none"
         d="m 5097.11,1107.46 h 570.02 v -62.78 h -570.02 v 62.78" /><path
         id="path857"
         style="fill:#8fb2ee;fill-opacity:1;fill-rule:evenodd;stroke:none"
         d="m 5575.6,793.352 h -390.37 v 185 h 393.79 v -3.422 -178.16 -3.418 z m -383.54,6.828 h 380.13 v 171.332 h -380.13 v -171.332 0" /><path
         id="path859"
         style="fill:#e6e8f6;fill-opacity:1;fill-rule:evenodd;stroke:none"
         d="m 5251.92,947.52 h 260.41 v -24.45 h -260.41 v 24.45" /><path
         id="path861"
         style="fill:#ffffff;fill-opacity:1;fill-rule:evenodd;stroke:none"
         d="m 5307.24,1107.46 h 54.04 v 77.82 h -54.04 v -77.82" /><path
         id="path863"
         style="fill:#8fb2ee;fill-opacity:1;fill-rule:evenodd;stroke:none"
         d="m 5301.07,1218.47 h 66.39 v -33.19 h -66.39 v 33.19" /><path
         id="path865"
         style="fill:#e6e8f6;fill-opacity:1;fill-rule:evenodd;stroke:none"
         d="m 5315.39,1119.76 h 37.75 v 53.22 h -37.75 v -53.22" /><path
         id="path867"
         style="fill:#f66f82;fill-opacity:1;fill-rule:evenodd;stroke:none"
         d="m 5536.47,1107.46 h -161.76 v 66.49 h 161.76 v -66.49" /><path
         id="path869"
         style="fill:#ffffff;fill-opacity:1;fill-rule:evenodd;stroke:none"
         d="m 5536.47,1144.01 h -161.76 v 13.97 h 161.76 v -13.97" /><path
         id="path871"
         style="fill:#e6e8f6;fill-opacity:1;fill-rule:evenodd;stroke:none"
         d="m 5579.22,1224.43 h 31.2 c 11,0 20,-9 20,-20 v -86.97 c 0,-5.5 -4.5,-10 -10,-10 h -51.2 c -5.51,0 -10,4.5 -10,10 v 86.97 c 0,11 9,20 20,20" /><path
         id="path873"
         style="fill:#e6e8f6;fill-opacity:1;fill-rule:evenodd;stroke:none"
         d="m 5583.12,1234.81 h 23.4 v -19.39 h -23.4 v 19.39" /><path
         id="path875"
         style="fill:#8fb2ee;fill-opacity:1;fill-rule:evenodd;stroke:none"
         d="m 5583.38,1257.79 h 22.87 c 2.23,0 4.05,-1.82 4.05,-4.04 v -18.68 c 0,-2.23 -1.82,-4.04 -4.05,-4.04 h -22.87 c -2.23,0 -4.05,1.81 -4.05,4.04 v 18.68 c 0,2.22 1.82,4.04 4.05,4.04" /><path
         id="path877"
         style="fill:#ffffff;fill-opacity:1;fill-rule:evenodd;stroke:none"
         d="m 5572.2,1196.51 h 45.22 v -75.31 h -45.22 v 75.31" /><path
         id="path879"
         style="fill:#8fb2ee;fill-opacity:1;fill-rule:evenodd;stroke:none"
         d="m 5572.2,1188.96 h 45.22 v -13.92 h -45.22 v 13.92" /><path
         id="path881"
         style="fill:#8fb2ee;fill-opacity:1;fill-rule:evenodd;stroke:none"
         d="m 5575.6,512.441 c -128.98,0 -257.97,0 -386.96,0 -1.14,0 -2.28,0 -3.41,0 0,1.149 0,2.278 0,3.418 0,59.391 0,118.782 0,178.172 0,1.141 0,2.278 0,3.418 1.13,0 2.27,0 3.41,0 128.99,0 257.98,0 386.96,0 1.14,0 2.28,0 3.42,0 0,-1.14 0,-2.277 0,-3.418 0,-59.39 0,-118.781 0,-178.172 0,-1.14 0,-2.269 0,-3.418 -1.14,0 -2.28,0 -3.42,0 z m -383.54,6.84 c 126.71,0 253.42,0 380.13,0 0,57.11 0,114.219 0,171.328 -126.71,0 -253.42,0 -380.13,0 0,-57.109 0,-114.218 0,-171.328 v 0" /><path
         id="path883"
         style="fill:#e6e8f6;fill-opacity:1;fill-rule:evenodd;stroke:none"
         d="m 5251.92,666.621 c 86.8,0 173.6,0 260.41,0 0,-8.152 0,-16.301 0,-24.449 -86.81,0 -173.61,0 -260.41,0 0,8.148 0,16.297 0,24.449" /><path
         id="path885"
         style="fill:#8fb2ee;fill-opacity:1;fill-rule:evenodd;stroke:none"
         d="m 5575.6,231.539 h -390.37 v 185 h 393.79 v -3.418 -178.172 -3.41 z m -383.54,6.832 h 380.13 v 171.328 h -380.13 v -171.328 0" /><path
         id="path887"
         style="fill:#e6e8f6;fill-opacity:1;fill-rule:evenodd;stroke:none"
         d="m 5251.92,385.711 h 260.41 v -24.449 h -260.41 v 24.449" /><path
         id="path889"
         style="fill:#e6e8f6;fill-opacity:1;fill-rule:evenodd;stroke:none"
         d="M 5216.38,133.422 5183.64,9.87891 h -41.61 V 133.422 h 74.35" /><path
         id="path891"
         style="fill:#e6e8f6;fill-opacity:1;fill-rule:evenodd;stroke:none"
         d="M 5547.86,133.422 5580.61,9.87891 h 41.61 V 133.422 h -74.36" /><path
         id="path893"
         style="fill:none;stroke:#8fb2ee;stroke-width:5.669;stroke-linecap:butt;stroke-linejoin:miter;stroke-miterlimit:22.9256;stroke-dasharray:none;stroke-opacity:1"
         d="m 5667.13,1044.68 h -570.02 v 62.78" /><path
         id="path895"
         style="fill:none;stroke:#8fb2ee;stroke-width:5.669;stroke-linecap:butt;stroke-linejoin:miter;stroke-miterlimit:22.9256;stroke-dasharray:none;stroke-opacity:1"
         d="M 5142.03,591.941 V 133.422 h 480.19" /><path
         id="path897"
         style="fill:none;stroke:#2f2e6b;stroke-width:5.669;stroke-linecap:butt;stroke-linejoin:miter;stroke-miterlimit:22.9256;stroke-dasharray:none;stroke-opacity:1"
         d="m 3966.65,9.89063 h 46.71 V 719.371 h -46.71 z" /><path
         id="path899"
         style="fill:none;stroke:#8fb2ee;stroke-width:5.669;stroke-linecap:butt;stroke-linejoin:miter;stroke-miterlimit:22.9256;stroke-dasharray:none;stroke-opacity:1"
         d="m 3394.06,9.89063 h 46.71 V 687.102 h -46.71 z" /><path
         id="path901"
         style="fill:none;stroke:#ffffff;stroke-width:5.669;stroke-linecap:butt;stroke-linejoin:miter;stroke-miterlimit:22.9256;stroke-dasharray:none;stroke-opacity:1"
         d="m 3402.08,837.012 c 208.83,0 417.67,0 626.5,0 40.24,0 73.17,-42.883 73.17,-95.282 v -31.75 c 0,-12.582 -7.9,-22.871 -17.56,-22.871 -245.9,0 -491.81,0 -737.72,0 -9.65,0 -17.56,10.289 -17.56,22.871 v 31.75 c 0,52.399 32.93,95.282 73.17,95.282 z" /><path
         id="path903"
         style="fill:none;stroke:#ffffff;stroke-width:5.669;stroke-linecap:butt;stroke-linejoin:miter;stroke-miterlimit:22.9256;stroke-dasharray:none;stroke-opacity:1"
         d="m 3470.3,1436.03 h 490.06 c 75,0 136.37,-61.37 136.37,-136.38 v -196.89 c 0,-75 -61.37,-136.369 -136.37,-136.369 H 3470.3 c -75,0 -136.37,61.369 -136.37,136.369 v 196.89 c 0,75.01 61.37,136.38 136.37,136.38 z" /><path
         id="path905"
         style="fill:#f66f82;fill-opacity:1;fill-rule:evenodd;stroke:none"
         d="m 3438.99,999.738 c 5.02,-35.156 0.83,-152.258 86.22,-167.316 85.38,-15.07 333.61,4.59 333.61,4.59 h 95.83 l -22.69,179.508 -492.97,-16.782" /><path
         id="path907"
         style="fill:#ffffff;fill-opacity:1;fill-rule:evenodd;stroke:none"
         d="m 3438.99,999.738 519.2,-7.34 -9.48,391.662 19.04,332.56 c -70.67,39.36 -159.65,60.12 -260.32,60.12 -100.67,0 -189.65,-20.76 -260.32,-60.12 l 15.15,-332.56 -23.27,-384.322" /><path
         id="path909"
         style="fill:none;stroke:#2f2e6b;stroke-width:5.669;stroke-linecap:butt;stroke-linejoin:miter;stroke-miterlimit:22.9256;stroke-dasharray:none;stroke-opacity:1"
         d="m 3438.99,999.738 519.2,-7.34 -9.48,391.662 19.04,332.56 c -70.67,39.36 -159.65,60.12 -260.32,60.12 -100.67,0 -189.65,-20.76 -260.32,-60.12 l 15.15,-332.56 z" /><path
         id="path911"
         style="fill:#f2d291;fill-opacity:1;fill-rule:evenodd;stroke:none"
         d="m 3790.24,1771.91 -63.95,-114.37 -101.68,114.37 15.5,178.16 h 134.61 l 15.52,-178.16" /><path
         id="path913"
         style="fill:#2f2e6b;fill-opacity:1;fill-rule:evenodd;stroke:none"
         d="m 4074.91,9.87891 c 1.11,8.29299 4.68,26.06249 -5.18,31.98049 -7.2,4.3125 -35.9,2.2695 -40.32,3.6523 -5.39,1.6797 -31.63,40.5 -36.87,47.668 h -57.5 l -29.03,-26.6406 -7.59,-56.66019 h 176.49" /><path
         id="path915"
         style="fill:#2f2e6b;fill-opacity:1;fill-rule:evenodd;stroke:none"
         d="m 3824.22,9.87891 c -0.34,8.29299 0.13,26.06249 -10.77,31.98049 -7.95,4.3125 -12.95,2.2695 -17.61,3.6523 -5.69,1.6797 -38.7,40.5 -45.19,47.668 h -57.51 l -24.37,-26.6406 2.3,-56.66019 h 153.15" /><path
         id="path917"
         style="fill:#f2d291;fill-opacity:1;fill-rule:evenodd;stroke:none"
         d="m 3447.12,1716.62 c -69.25,-21.24 -118.45,-355.64 -119.5,-507.27 l 124.92,-8.99 c 11.05,66.93 33.71,196.57 33.71,196.57 0,0 2.52,224.19 -39.13,319.69" /><path
         id="path919"
         style="fill:#e0bd89;fill-opacity:1;fill-rule:evenodd;stroke:none"
         d="m 3365.02,1527.49 c -21.39,-100.86 -34.83,-220.14 -37.08,-300.39 l 134.71,33.27 c 10.99,64.43 23.6,136.56 23.6,136.56 0,0 0.5,44.97 -2.68,103.2 l -118.55,27.36" /><path
         id="path921"
         style="fill:#8fb2ee;fill-opacity:1;fill-rule:evenodd;stroke:none"
         d="m 3447.11,1716.62 c -51.5,-15.8 -116.29,-231.97 -137.36,-413.4 l 163.7,-19.17 c 9.88,60.69 12.8,112.88 12.8,112.88 0,0 2.52,224.19 -39.14,319.69" /><path
         id="path923"
         style="fill:none;stroke:#2f2e6b;stroke-width:5.669;stroke-linecap:butt;stroke-linejoin:miter;stroke-miterlimit:22.9256;stroke-dasharray:none;stroke-opacity:1"
         d="m 3463.63,1260.6 c 0,0 25.15,274.8 -14.22,405.59" /><path
         id="path925"
         style="fill:#f66f82;fill-opacity:1;fill-rule:evenodd;stroke:none"
         d="m 4080.48,900.578 -52.1,-826.9764 -175.53,-5 c 0.33,257.8204 5.81,574.1484 6.14,831.9764 -4.2,82.781 74.13,108.542 113.93,102.572 34.53,-5.181 103.2,-19.298 107.56,-102.572" /><path
         id="path927"
         style="fill:#e0bd89;fill-opacity:1;fill-rule:evenodd;stroke:none"
         d="m 3629.35,1826.41 c 2.94,33.72 4.33,49.82 7.27,83.55 48.8,-18.34 97.59,-36.69 146.39,-55.03 -40.22,-31.55 -114.01,-94.29 -153.66,-28.52" /><path
         id="path929"
         style="fill:#f2d291;fill-opacity:1;fill-rule:evenodd;stroke:none"
         d="m 3732.55,2166.81 c -28.94,0.2 -116.18,-0.19 -121.19,-113.07 -5.02,-112.87 11.11,-150.41 24.31,-167.71 16.89,-22.14 44.47,-46.89 114.36,-58.31 41.05,1 48.62,25.26 62.24,48.91 10.86,18.86 32.28,56.87 34.26,169.84 1.97,112.97 -85.07,118.75 -113.98,120.34" /><path
         id="path931"
         style="fill:#2f2e6b;fill-opacity:1;fill-rule:evenodd;stroke:none"
         d="m 3722.5,2003.25 c 5.53,-0.21 10.04,-5.9 10.06,-12.7 0.03,-6.81 -4.43,-12.15 -9.96,-11.94 -5.54,0.21 -10.04,5.91 -10.07,12.71 -0.03,6.81 4.43,12.15 9.97,11.93" /><path
         id="path933"
         style="fill:#2f2e6b;fill-opacity:1;fill-rule:evenodd;stroke:none"
         d="m 3813.61,1998.13 c -5.54,0.12 -10.39,-5.28 -10.83,-12.07 -0.45,-6.79 3.67,-12.4 9.21,-12.52 5.54,-0.13 10.39,5.27 10.83,12.06 0.45,6.79 -3.67,12.4 -9.21,12.53" /><path
         id="path935"
         style="fill:none;stroke:#2f2e6b;stroke-width:5.669;stroke-linecap:butt;stroke-linejoin:miter;stroke-miterlimit:22.9256;stroke-dasharray:none;stroke-opacity:1"
         d="m 3801.33,2024.98 c -2.11,-0.06 -9.96,-5.26 -11.13,-13.28 -3.24,-22.22 2.77,-65.16 1.75,-73.38 -1.4,-11.19 -18.64,-9.52 -18.64,-9.52" /><path
         id="path937"
         style="fill:none;stroke:#2f2e6b;stroke-width:5.669;stroke-linecap:butt;stroke-linejoin:miter;stroke-miterlimit:22.9256;stroke-dasharray:none;stroke-opacity:1"
         d="m 3746.93,1899.39 c 0,0 19.01,-15.21 52.47,-1.09" /><path
         id="path939"
         style="fill:none;stroke:#2f2e6b;stroke-width:5.669;stroke-linecap:butt;stroke-linejoin:miter;stroke-miterlimit:22.9256;stroke-dasharray:none;stroke-opacity:1"
         d="m 3705.71,2028.6 c 6.93,2.24 26.46,0.4 38,-2.85" /><path
         id="path941"
         style="fill:none;stroke:#2f2e6b;stroke-width:5.669;stroke-linecap:butt;stroke-linejoin:miter;stroke-miterlimit:22.9256;stroke-dasharray:none;stroke-opacity:1"
         d="m 3837.95,2020.44 c -6.44,3.43 -25.98,5.06 -37.92,3.9" /><path
         id="path943"
         style="fill:#691621;fill-opacity:1;fill-rule:evenodd;stroke:none"
         d="m 3653.91,2088.52 c -10.48,-5.84 6.89,-94.93 -39.74,-87.13 -27.96,47.97 -30.42,106.59 10.4,128.08 9.81,40.85 51.18,55.92 102.63,51.42 29.68,-2.59 61.1,-31.36 94.85,-33.51 52.74,-3.36 67.22,-36.03 46.87,-64.16 -8.84,-12.22 -36.65,-13.18 -48.42,-8.18 -16.43,6.98 -62.56,-20.43 -94.37,-17.45 -36.22,3.39 -47.69,23.37 -72.22,30.93" /><path
         id="path945"
         style="opacity:0.88;fill:none;fill-opacity:1;stroke:#f66f82;stroke-width:5.669;stroke-linecap:butt;stroke-linejoin:miter;stroke-miterlimit:22.9256;stroke-dasharray:none;stroke-opacity:1;filter:url(#filter6416)"
         d="m 3652.63,2138.99 c -12.69,-35.35 9.9,-83.81 50.26,-93.62" /><path
         id="path947"
         style="fill:#f2d291;fill-opacity:1;fill-rule:evenodd;stroke:none"
         d="m 3618.59,2004.59 c -3.45,6.89 -7.74,12.54 -16.54,14.68 -8.8,2.13 -25.02,-1.88 -25.76,-26.98 -0.74,-25.1 19.53,-47.33 32.86,-44.75 13.33,2.59 9.44,57.05 9.44,57.05" /><path
         id="path949"
         style="fill:none;stroke:#2f2e6b;stroke-width:4.252;stroke-linecap:butt;stroke-linejoin:miter;stroke-miterlimit:22.9256;stroke-dasharray:none;stroke-opacity:1"
         d="m 3608.41,1992.63 c 0.09,3.14 -11.65,18.06 -22.4,8.48" /><path
         id="path951"
         style="fill:none;stroke:#2f2e6b;stroke-width:5.669;stroke-linecap:butt;stroke-linejoin:miter;stroke-miterlimit:22.9256;stroke-dasharray:none;stroke-opacity:1"
         d="m 3617.19,1945.27 c 5.01,-31.27 13.21,-47.04 20.51,-56.61 16.89,-22.13 44.47,-46.88 114.37,-58.31" /><path
         id="path953"
         style="fill:#f66f82;fill-opacity:1;fill-rule:evenodd;stroke:none"
         d="m 3745.36,900.621 20.6,-826.9804 -175.08,-4.9922 c -22.34,257.8206 -44.67,574.1526 -67,831.9726 -11.49,82.801 64.59,108.549 104.91,102.579 34.99,-5.188 104.9,-19.302 116.57,-102.579" /><path
         id="path955"
         style="fill:none;stroke:#2f2e6b;stroke-width:5.669;stroke-linecap:butt;stroke-linejoin:miter;stroke-miterlimit:22.9256;stroke-dasharray:none;stroke-opacity:1"
         d="M 3934.97,992.73 C 3843,971.949 3853.66,681.762 3854.41,329.941" /><path
         id="path957"
         style="fill:none;stroke:#2f2e6b;stroke-width:5.669;stroke-linecap:butt;stroke-linejoin:miter;stroke-miterlimit:22.9256;stroke-dasharray:none;stroke-opacity:1"
         d="m 3590.41,74.082 c -22.18,256.816 -44.35,570.527 -66.53,826.539 -11.49,82.801 64.59,108.549 104.91,102.579 34.99,-5.188 104.9,-19.302 116.57,-102.579 l 7.56,-303.422" /><path
         id="path959"
         style="fill:#f2d291;fill-opacity:1;fill-rule:evenodd;stroke:none"
         d="m 3327.62,1209.35 c -1.42,-154.93 206.52,-233.83 249.42,-225.491 l 11.73,70.841 c 0,0 -8.65,3.99 -21.87,11.27 -51.05,28.12 -57.99,81.5 -114.35,134.4 l -124.93,8.98" /><path
         id="path961"
         style="fill:#f2d291;fill-opacity:1;fill-rule:evenodd;stroke:none"
         d="m 3644.38,1067.82 c 3.54,-0.29 52.55,-23.08 52.55,-23.08 l 36.31,-55.318 c 0,0 -19.21,5.16 -24.76,9.367 -5.54,4.211 -15.68,22.001 -15.68,22.001 l -26.23,8.78 15.6,-20.76 c 0,0 37.8,-63.29 40.47,-65.65 2.66,-2.359 -15.6,-0.672 -23.28,5.672 -7.69,6.348 -26.25,30.199 -26.25,30.199 0,0 18.05,-36.48 19.83,-40.91 -2.98,-2.07 -10.94,-1.051 -15.96,2.93 l 0.59,-3.09 c 0,0 -12.79,-1.27 -24.54,5.59 -11.75,6.859 -16.26,14.918 -16.26,14.918 0,0 -25.65,7.301 -29.79,9.07 -4.13,1.762 -25.66,6.84 -34.67,10.191 -22.21,8.258 -13.84,63.91 9.01,77.37 13.36,7.87 45.64,14.17 63.06,12.72" /><path
         id="path963"
         style="fill:none;stroke:#2f2e6b;stroke-width:5.669;stroke-linecap:butt;stroke-linejoin:miter;stroke-miterlimit:22.9256;stroke-dasharray:none;stroke-opacity:1"
         d="m 3651.99,1015.1 c 0,0 7.02,-8.17 12.46,-17.53 5.45,-9.359 8.66,-18.539 8.66,-18.539" /><path
         id="path965"
         style="fill:none;stroke:#2f2e6b;stroke-width:5.669;stroke-linecap:butt;stroke-linejoin:miter;stroke-miterlimit:22.9256;stroke-dasharray:none;stroke-opacity:1"
         d="m 3674.79,951.93 c -6.84,6.961 -18.8,22.582 -22.22,26.058 -3.43,3.481 -25.6,14.532 -25.6,14.532" /><path
         id="path967"
         style="fill:#f2d291;fill-opacity:1;fill-rule:evenodd;stroke:none"
         d="M 4269.92,1296.17 C 4213.14,1129.75 4022.79,968 4022.79,968 l -46.12,73.27 c 32.04,25.77 139.39,236.93 178.98,296.98 l 114.27,-42.08" /><path
         id="path969"
         style="fill:#f2d291;fill-opacity:1;fill-rule:evenodd;stroke:none"
         d="m 4079.62,1627.55 c 53.34,-70.93 169.27,-267.46 189.12,-334.55 l -115.15,-56.5 c -28.15,59.55 -141.2,199.6 -197.75,272.01 l 11.49,200.82 c 37.58,-6.1 86.39,-47.32 112.29,-81.78" /><path
         id="path971"
         style="fill:#e0bd89;fill-opacity:1;fill-rule:evenodd;stroke:none"
         d="m 4079.62,1627.55 c 20.53,-27.3 50.34,-73.22 80.37,-123.2 -9,-21.54 -48.48,-112.69 -86.37,-147.66 -35.98,48.14 -76.22,98.87 -106,136.78 25.55,33.62 71.18,93.37 107.71,139.58 1.49,-1.85 2.93,-3.68 4.29,-5.5" /><path
         id="path973"
         style="fill:#f2d291;fill-opacity:1;fill-rule:evenodd;stroke:none"
         d="m 3924.89,1028.95 c -3.3,-1.32 -43.39,-37.419 -43.39,-37.419 l -18.46,-63.441 c 0,0 16.83,10.558 20.89,16.199 4.05,5.641 8.51,25.59 8.51,25.59 l 22.47,16.062 -8.81,-24.382 c 0,0 -17.54,-71.477 -19.39,-74.508 -1.85,-3.031 15.08,3.918 20.56,12.23 5.48,8.309 16.21,36.52 16.21,36.52 0,0 -6.55,-40.121 -6.95,-44.86 3.45,-1.101 10.75,2.2 14.38,7.469 l 0.34,-3.129 c 0,0 12.57,2.539 21.77,12.528 9.21,9.992 11.16,19 11.16,19 0,0 22.34,14.48 25.77,17.382 3.43,2.899 22.49,14.047 30.1,19.879 18.78,14.391 -5.5,65.05 -31.26,71.21 -15.05,3.59 -47.7,0.15 -63.9,-6.33" /><path
         id="path975"
         style="fill:none;stroke:#2f2e6b;stroke-width:5.669;stroke-linecap:butt;stroke-linejoin:miter;stroke-miterlimit:22.9256;stroke-dasharray:none;stroke-opacity:1"
         d="m 3933.06,976.398 c 0,0 -4.3,-9.847 -6.76,-20.378 -2.46,-10.532 -2.83,-20.219 -2.83,-20.219" /><path
         id="path977"
         style="fill:none;stroke:#2f2e6b;stroke-width:5.669;stroke-linecap:butt;stroke-linejoin:miter;stroke-miterlimit:22.9256;stroke-dasharray:none;stroke-opacity:1"
         d="m 3929.8,909.43 c 4.5,8.648 11.33,27.07 13.58,31.39 2.25,4.321 20.18,21.36 20.18,21.36" /><path
         id="path979"
         style="fill:#8fb2ee;fill-opacity:1;fill-rule:evenodd;stroke:none"
         d="m 3967.75,1716.56 c 38.41,1.59 120.97,-78.16 199.33,-178.5 -13.4,-44.07 -80.65,-124.34 -121.6,-151.53 0,0 -48.83,38.97 -91.35,92.16 -7.66,60.99 -6.17,223.65 13.62,237.87" /><path
         id="path981"
         style="fill:#8fb2ee;fill-opacity:1;fill-rule:evenodd;stroke:none"
         d="m 4062.8,1397.64 c 25.07,24 72.36,79.62 105.84,142.16 16.91,31.57 -25.12,56.24 -38.56,45.64 0,0 -66.33,-111.64 -105.63,-148.63 -33.71,-31.73 4.89,-71.22 38.35,-39.17" /><path
         id="path983"
         style="fill:#edba68;fill-opacity:1;fill-rule:evenodd;stroke:none"
         d="m 4199.64,1355.98 c -4.07,2.41 -6.33,7.37 -6.7,9.56 -0.37,2.19 40.97,8.79 40.97,8.79 0,0 -24.94,-18.89 -34.27,-18.35" /><path
         id="path985"
         style="fill:#8fb2ee;fill-opacity:1;fill-rule:evenodd;stroke:none"
         d="m 4361.69,1336.08 c -1.81,1.81 -16.52,0.42 -20.49,4.69 -18.01,19.39 -52.8,57.94 -54.93,59.29 -2.59,1.65 -48.25,11.62 -48.25,11.62 l -53.96,-19.05 c 0,0 15.93,-6.51 21.94,-6.51 6.02,-0.01 22.32,6.93 22.32,6.93 l 22.65,-7.7 -21.61,-6.11 c 0,0 -59.15,-23.77 -62.22,-24 -3.07,-0.23 10.37,-8.63 18.99,-8.28 8.62,0.34 33.88,7.04 33.88,7.04 0,0 -31.53,-15.66 -35.07,-17.78 0.97,-2.98 6.97,-6.45 12.52,-6.34 l -2.03,-1.82 c 0,0 8.13,-7.56 19.82,-8.99 11.68,-1.43 19,1.75 19,1.75 0,0 21.47,-8.41 25.25,-9.36 3.77,-0.95 20.76,-11.23 27.59,-15.96 6.84,-4.73 32.91,-16.8 38.58,-16.22 5.66,0.59 27.08,-4.07 27.08,-4.07 l 8.94,60.87" /><path
         id="path987"
         style="fill:none;stroke:#2f2e6b;stroke-width:5.669;stroke-linecap:butt;stroke-linejoin:miter;stroke-miterlimit:22.9256;stroke-dasharray:none;stroke-opacity:1"
         d="m 4256.08,1367.31 c 0,0 -10.85,-2.32 -21.17,-6.6 -10.31,-4.28 -18.68,-9.81 -18.68,-9.81" /><path
         id="path989"
         style="fill:none;stroke:#2f2e6b;stroke-width:5.669;stroke-linecap:butt;stroke-linejoin:miter;stroke-miterlimit:22.9256;stroke-dasharray:none;stroke-opacity:1"
         d="m 4197.93,1329.71 c 9.96,1.43 29.53,6.79 34.51,7.51 4.99,0.71 30.08,-4.07 30.08,-4.07" /><path
         id="path991"
         style="fill:#8fb2ee;fill-opacity:1;fill-rule:evenodd;stroke:none"
         d="m 4400.26,1488.52 c 0,0 -34.12,30.48 -38.22,34.92 -4.09,4.45 -20.74,28.31 -20.74,28.31 0,0 -21.34,14.68 -24.81,17.27 -3.47,2.59 -25.56,23.72 -27.55,27.05 -5.8,8.49 -14.8,-16.14 6.89,-37.13 6.25,-6.04 7.96,-10.26 7.96,-10.26 l -62.2,16.45 c 0,0 -18.04,-15.89 -18.9,-18.5 -0.86,-2.6 4.97,-9.27 7.45,-9.27 2.48,0.01 -4.6,-3.75 -6.16,-11.78 -0.73,-3.72 4.47,-9.76 10.06,-13.22 0,0 -6.3,-6.58 -6.17,-9.92 0.14,-3.34 9.94,-11.74 9.94,-11.74 0,0 -7.3,-5.22 -7.16,-11.03 0.14,-5.82 7.96,-12.12 7.96,-12.12 l 7.54,0.39 78.3,-15.16 62.6,-33.5 13.21,69.24" /><path
         id="path993"
         style="fill:none;stroke:#2f2e6b;stroke-width:5.669;stroke-linecap:butt;stroke-linejoin:miter;stroke-miterlimit:22.9256;stroke-dasharray:none;stroke-opacity:1"
         d="m 4237.81,1490.7 38.26,-1.51 c 0,0 9.3,-3.7 12.15,-6.91 2.86,-3.21 -13.85,-9.44 -19.91,-9.09" /><path
         id="path995"
         style="fill:none;stroke:#2f2e6b;stroke-width:5.669;stroke-linecap:butt;stroke-linejoin:miter;stroke-miterlimit:22.9256;stroke-dasharray:none;stroke-opacity:1"
         d="m 4234.04,1512.36 48.66,-1.86 c 0,0 11.16,-4.31 14.39,-9.5 3.23,-5.19 -11.11,-10.73 -14.83,-11.8" /><path
         id="path997"
         style="fill:none;stroke:#2f2e6b;stroke-width:5.669;stroke-linecap:butt;stroke-linejoin:miter;stroke-miterlimit:22.9256;stroke-dasharray:none;stroke-opacity:1"
         d="m 4248.15,1511.82 c 0,0 17.7,5.08 17.81,9.16 0.12,4.09 -6.47,12.25 -12.78,14.34" /><path
         id="path999"
         style="fill:#2f2e6b;fill-opacity:1;fill-rule:evenodd;stroke:none"
         d="m 4179,1491.85 9.57,-11.75 c 1.12,-1.38 3.18,-1.59 4.57,-0.47 l 66.78,54.32 c 1.38,1.12 1.59,3.18 0.46,4.56 l -9.56,11.76 c -1.13,1.39 -3.19,1.59 -4.57,0.47 l -66.78,-54.31 c -1.38,-1.13 -1.59,-3.19 -0.47,-4.58" /><path
         id="path1001"
         style="fill:#2f2e6b;fill-opacity:1;fill-rule:evenodd;stroke:none"
         d="m 4284.28,1571.83 1.81,-2.22 c 0.21,-0.26 1.72,-3.16 1.46,-3.36 l -33.51,-27.14 c -0.26,-0.21 -2.2,2.32 -2.41,2.58 l -1.81,2.23 c -0.22,0.26 -0.18,0.65 0.08,0.86 l 33.52,27.14 c 0.26,0.21 0.65,0.17 0.86,-0.09" /><path
         id="path1003"
         style="fill:#2f2e6b;fill-opacity:1;fill-rule:evenodd;stroke:none"
         d="m 4293.72,1559.84 -2.23,-1.81 c -0.26,-0.21 -3.23,-2.5 -3.44,-2.24 l -14.37,17.66 c -0.22,0.26 2.4,2.97 2.66,3.19 l 2.23,1.81 c 0.26,0.21 0.65,0.17 0.86,-0.09 l 14.37,-17.66 c 0.22,-0.26 0.18,-0.64 -0.08,-0.86" /><path
         id="path1005"
         style="fill:#2f2e6b;fill-opacity:1;fill-rule:evenodd;stroke:none"
         d="m 4183.57,1487.57 1.81,-2.22 c 0.21,-0.26 0.17,-0.65 -0.09,-0.86 l -17.66,-14.37 c -0.26,-0.21 -0.65,-0.17 -0.86,0.09 l -1.81,2.22 c -0.22,0.27 -0.18,0.65 0.09,0.87 l 17.65,14.36 c 0.26,0.22 0.65,0.18 0.87,-0.09" /><path
         id="path1007"
         style="fill:#ffffff;fill-opacity:1;fill-rule:evenodd;stroke:none"
         d="m 4231.57,1510.88 28.35,23.07 c 1.38,1.12 1.59,3.18 0.46,4.56 l -9.56,11.76 c -1.13,1.38 -3.19,1.6 -4.57,0.47 l -28.35,-23.07 13.67,-16.79" /><path
         id="path1009"
         style="fill:none;stroke:#2f2e6b;stroke-width:5.669;stroke-linecap:butt;stroke-linejoin:miter;stroke-miterlimit:22.9256;stroke-dasharray:none;stroke-opacity:1"
         d="m 4245.11,1542.11 c -2.22,-2.36 -7.75,-6.74 -14.97,-4.75 -5.14,1.42 -7.48,8.61 -7.48,8.61" /><path
         id="path1011"
         style="fill:none;stroke:#2f2e6b;stroke-width:5.669;stroke-linecap:butt;stroke-linejoin:miter;stroke-miterlimit:22.9256;stroke-dasharray:none;stroke-opacity:1"
         d="m 4298.26,1556.69 c 0,0 5.43,-6.03 5.81,-8.19 0.38,-2.16 -6.94,-34.45 22.81,-51.5" /><path
         id="path1013"
         style="fill:#ffffff;fill-opacity:1;fill-rule:evenodd;stroke:none"
         d="m 4714.3,1245.38 c -149.72,19.51 -333.89,155.89 -333.89,155.89 l 19.85,87.26 c 0,0 273.74,-123.53 331,-146.66 l -16.96,-96.49" /><path
         id="path1015"
         style="fill:none;stroke:#2f2e6b;stroke-width:5.669;stroke-linecap:butt;stroke-linejoin:miter;stroke-miterlimit:22.9256;stroke-dasharray:none;stroke-opacity:1"
         d="m 4714.3,1245.38 c -149.72,19.51 -333.89,155.89 -333.89,155.89 l 19.85,87.26 c 0,0 273.74,-123.53 331,-146.66 z" /><path
         id="path1017"
         style="fill:#fefefe;fill-opacity:1;fill-rule:evenodd;stroke:none"
         d="m 4729.7,129.262 h 50.94 V 697.16 H 4729.7 V 129.262" /><path
         id="path1019"
         style="fill:none;stroke:#8fb2ee;stroke-width:5.669;stroke-linecap:butt;stroke-linejoin:miter;stroke-miterlimit:22.9256;stroke-dasharray:none;stroke-opacity:1"
         d="M 4970.38,129.262 H 4565.91" /><path
         id="path1021"
         style="fill:#e6e8f6;fill-opacity:1;fill-rule:evenodd;stroke:none"
         d="m 4952.48,26.1992 c 19.4,0 35.22,15.8203 35.22,35.2227 0,19.3867 -15.82,35.207 -35.22,35.207 -19.39,0 -35.21,-15.8203 -35.21,-35.207 0,-19.4024 15.82,-35.2227 35.21,-35.2227" /><path
         id="path1023"
         style="fill:#e6e8f6;fill-opacity:1;fill-rule:evenodd;stroke:none"
         d="m 4809.09,26.1992 c 19.4,0 35.22,15.8203 35.22,35.2227 0,19.3867 -15.82,35.207 -35.22,35.207 -19.39,0 -35.22,-15.8203 -35.22,-35.207 0,-19.4024 15.83,-35.2227 35.22,-35.2227" /><path
         id="path1025"
         style="fill:#f2d291;fill-opacity:1;fill-rule:evenodd;stroke:none"
         d="m 4384.12,955.969 273.3,-713.27 -75.48,-45.711 -357.37,626.184 -13.52,104.668 173.07,28.129" /><path
         id="path1027"
         style="fill:#f2d291;fill-opacity:1;fill-rule:evenodd;stroke:none"
         d="m 4697.83,153.172 2.5,-39.582 -113.46,-89.5002 -12.23,21.5704 44.36,87.2108 -74.12,128.238 92.46,26.039 60.49,-133.976" /><path
         id="path1029"
         style="fill:#4247ca;fill-opacity:1;fill-rule:evenodd;stroke:none"
         d="m 4727.38,113.949 -126.41,-95.2185 -26.33,26.9297 c 14.03,-7.3711 107.3,62.8788 114.49,83.0778 l 8.7,24.434 29.55,-39.223" /><path
         id="path1031"
         style="fill:#4247ca;fill-opacity:1;fill-rule:evenodd;stroke:none"
         d="m 4600.97,18.7305 -80.06,-8.94144 c 0,0 -6.27,10.98044 8.45,17.08984 l 45.28,18.793 26.33,-26.9414" /><path
         id="path1033"
         style="fill:#f2d291;fill-opacity:1;fill-rule:evenodd;stroke:none"
         d="m 4395.88,890.621 67.92,-664.93 -96.34,14.118 -166.17,587.363 2.6,81.566 191.99,-18.117" /><path
         id="path1035"
         style="fill:#f2d291;fill-opacity:1;fill-rule:evenodd;stroke:none"
         d="m 4481.84,115.531 -7.57,-38.9294 -132.38,-57.9532 -6.39,23.961 64.94,73.1796 -39.35,142.793 96.05,1.859 24.7,-144.91" /><path
         id="path1037"
         style="fill:#4247ca;fill-opacity:1;fill-rule:evenodd;stroke:none"
         d="M 4500.52,70.1211 4354.17,9.89844 4335.5,42.6094 c 11.71,-10.668 119.7,33.75 131.75,51.4804 l 14.59,21.4412 18.68,-45.4099" /><path
         id="path1039"
         style="fill:#4247ca;fill-opacity:1;fill-rule:evenodd;stroke:none"
         d="m 4354.17,9.89844 -80.56,-0.06641 c 0,0 -4.87,11.12887 10.29,16.04687 l 51.6,16.7305 18.67,-32.71096" /><path
         id="path1041"
         style="fill:#4247ca;fill-opacity:1;fill-rule:evenodd;stroke:none"
         d="m 4200.97,848.59 13.78,-58.602 c 0,0 170.35,-64.597 348.07,-79.117 -4.77,48.07 -16.98,96.379 -16.98,96.379 l -344.87,41.34" /><path
         id="path1043"
         style="fill:#e0bd89;fill-opacity:1;fill-rule:evenodd;stroke:none"
         d="m 4441.62,442.859 -29.72,290.942 42.69,-8.449 z" /><path
         id="path1045"
         style="fill:#ffffff;fill-opacity:1;fill-rule:evenodd;stroke:none"
         d="m 4549.91,835.559 1.79,-29.02 -357.62,43.031 c -6.99,36.11 -13.36,77.969 -18.1,116.95 -11.15,91.68 8.26,117.62 54.96,124.44 159.74,23.33 331.45,58.66 482.03,74.99 15.8,52.63 -107.17,187.58 -131.91,241.18 -28.01,37.45 -33.4,58.47 -21.07,103.92 8.39,30.92 59.15,103.49 88.52,144.6 42.3,-7.74 51.85,22.67 119.96,80.83 156.55,-107.54 169.01,-388.56 189.72,-569.04 14.44,-110.04 42.48,-370.819 -408.28,-331.881" /><path
         id="path1047"
         style="fill:none;stroke:#2f2e6b;stroke-width:5.669;stroke-linecap:butt;stroke-linejoin:miter;stroke-miterlimit:22.9256;stroke-dasharray:none;stroke-opacity:1"
         d="m 4549.91,835.559 1.79,-29.02 -357.62,43.031 c -6.99,36.11 -13.36,77.969 -18.1,116.95 -11.15,91.68 8.26,117.62 54.96,124.44 159.74,23.33 331.45,58.66 482.03,74.99 15.8,52.63 -107.17,187.58 -131.91,241.18 -28.01,37.45 -33.4,58.47 -21.07,103.92 8.39,30.92 59.15,103.49 88.52,144.6 42.3,-7.74 51.85,22.67 119.96,80.83 156.55,-107.54 169.01,-388.56 189.72,-569.04 14.44,-110.04 42.48,-370.819 -408.28,-331.881 z" /><path
         id="path1049"
         style="fill:none;stroke:#2f2e6b;stroke-width:5.669;stroke-linecap:butt;stroke-linejoin:miter;stroke-miterlimit:22.9256;stroke-dasharray:none;stroke-opacity:1"
         d="m 4653.16,869.34 c -37.65,11.93 -213.42,69.98 -315.92,162.68" /><path
         id="path1051"
         style="fill:none;stroke:#2f2e6b;stroke-width:5.669;stroke-linecap:butt;stroke-linejoin:miter;stroke-miterlimit:22.9256;stroke-dasharray:none;stroke-opacity:1"
         d="m 4746.72,916.27 c -38.83,2.289 -134.78,18.281 -239.87,66.261" /><path
         id="path1053"
         style="fill:#f2d291;fill-opacity:1;fill-rule:evenodd;stroke:none"
         d="m 4774.05,1732.92 c -26.45,53.16 -60.95,102.14 -36.43,210.55 -49.2,-36.2 -69.15,-104.2 -118.36,-140.4 40.4,-55.11 18.86,-160.33 15.26,-177.73 37.66,-3.12 111.16,63.2 139.53,107.58" /><path
         id="path1055"
         style="fill:#e0bd89;fill-opacity:1;fill-rule:evenodd;stroke:none"
         d="m 4731.45,1842.88 c -1.87,13.09 -2.65,27.34 -1.94,43.12 l -56.21,-20.46 c -15.64,-23.4 -31.88,-46.16 -54.04,-62.47 12.79,-17.44 19.37,-39.9 22.27,-63 25.77,-20.54 68.14,-10.71 83.05,8.02 16.42,20.61 19.45,58.07 6.87,94.79" /><path
         id="path1057"
         style="fill:#2f2e6b;fill-opacity:1;fill-rule:evenodd;stroke:none"
         d="m 4526.9,2053.48 c 10.58,54.04 112.14,80.24 160.27,80.01 99.07,-0.48 139.1,-111.6 188.3,-127.73 55.16,-18.09 50.83,-83.77 27.82,-104.14 -23,-20.38 -15.33,-32.49 -26.34,-60.87 -17.89,-46.07 -60.84,-76.25 -113.02,-43.08 -22.25,14.15 -64.04,2.2 -64.04,2.2 -22.73,3.06 -12.25,-24.06 -72.79,-42.41 -38.16,-11.58 -90.12,28.82 -82.58,70.21 7.22,39.67 -8.7,80.97 -26.69,95.37 -23.82,5.83 -35.9,7.78 -46.52,25.77 -28.88,48.92 -3.4,93.85 55.59,104.67" /><path
         id="path1059"
         style="fill:#f2d291;fill-opacity:1;fill-rule:evenodd;stroke:none"
         d="m 4510.03,2026.95 c -14.99,-12.42 -24.26,-60.35 -12.72,-101.59 5.95,-21.28 20.73,-22.57 25.42,-40.11 0.63,-6.52 -2.83,-20.45 -7.2,-35.98 -4.09,-14.53 -7.92,-26.04 -6.81,-28.54 2.91,-6.53 16.11,-10.49 23.69,-8.91 0,0 8.56,-13.68 15.22,-29.68 6.93,-16.64 12.06,-35.73 16.37,-41.11 8.46,-10.54 13.81,-10.75 37.78,-5.84 23.97,4.92 93.15,34.89 114.78,101.59 21.64,66.7 15.17,158.59 -16.82,193.13 -59.19,63.93 -127.81,48.35 -189.71,-2.96" /><path
         id="path1061"
         style="fill:none;stroke:#2f2e6b;stroke-width:5.669;stroke-linecap:butt;stroke-linejoin:miter;stroke-miterlimit:22.9256;stroke-dasharray:none;stroke-opacity:1"
         d="m 4691.87,1791.87 c -12.75,-16.98 -32.56,-34.71 -69.15,-49.56" /><path
         id="path1063"
         style="fill:#2f2e6b;fill-opacity:1;fill-rule:evenodd;stroke:none"
         d="m 4550.79,1891.29 c -5.7,-1.42 -9.1,-8.28 -7.58,-15.33 1.52,-7.05 7.36,-11.61 13.06,-10.2 5.7,1.42 9.09,8.28 7.57,15.33 -1.51,7.05 -7.36,11.61 -13.05,10.2" /><path
         id="path1065"
         style="fill:none;stroke:#2f2e6b;stroke-width:5.669;stroke-linecap:butt;stroke-linejoin:miter;stroke-miterlimit:22.9256;stroke-dasharray:none;stroke-opacity:1"
         d="m 4570.68,1803.59 c -1.04,-1.66 -9.42,-11.37 -31.17,-13.56" /><path
         id="path1067"
         style="fill:none;stroke:#2f2e6b;stroke-width:5.669;stroke-linecap:butt;stroke-linejoin:miter;stroke-miterlimit:22.9256;stroke-dasharray:none;stroke-opacity:1"
         d="m 4524.27,1910.09 c 0,0 10.1,12.85 34.14,8.74" /><path
         id="path1071"
         style="fill:#2f2e6b;fill-opacity:1;fill-rule:evenodd;stroke:none"
         d="m 4543.51,1965.01 c -26.6,25.82 -50.83,12.93 -51.19,-8.09 -29.52,39.02 22.58,116.54 138.02,130.59 119.53,14.54 206.09,-193.14 185.26,-269.58 -40.89,-92.96 -160.44,-46.06 -113.71,67.19 -14.48,36.32 -21.17,68.65 -27.7,66.16 -6.84,-2.61 -0.5,-21.78 -30.09,-26.99 -27.82,-4.91 -22.53,12.07 -40.38,25.03 -20.13,14.63 -40.58,-3.36 -60.21,15.69" /><path
         id="path1073"
         style="fill:#f2d291;fill-opacity:1;fill-rule:evenodd;stroke:none"
         d="m 4665.63,1936.79 c 2.02,7.88 5.19,14.66 13.85,18.76 8.65,4.11 26.4,3.46 32.86,-22.36 6.46,-25.82 -9.54,-53.2 -23.97,-53.4 -7.94,-0.12 -21.68,10.15 -25.55,25.7 -3.17,12.72 2.81,31.3 2.81,31.3" /><path
         id="path1075"
         style="fill:none;stroke:#2f2e6b;stroke-width:4.252;stroke-linecap:butt;stroke-linejoin:miter;stroke-miterlimit:22.9256;stroke-dasharray:none;stroke-opacity:1"
         d="m 4678.91,1926.61 c -0.81,3.24 8.01,21.21 21.34,13.61" /><path
         id="path1077"
         style="fill:#f66f82;fill-opacity:1;fill-rule:evenodd;stroke:none"
         d="m 4697.78,1892.16 c -3.91,-1.04 -6.23,-5.05 -5.19,-8.96 1.04,-3.91 5.06,-6.24 8.96,-5.19 3.91,1.04 6.24,5.06 5.19,8.97 -1.04,3.91 -5.06,6.23 -8.96,5.18" /><path
         id="path1079"
         style="fill:none;stroke:#2f2e6b;stroke-width:5.669;stroke-linecap:butt;stroke-linejoin:miter;stroke-miterlimit:22.9256;stroke-dasharray:none;stroke-opacity:1"
         d="m 4545.5,1778.9 c 0,0 8.2,-3.3 18.36,5.11" /><path
         id="path1081"
         style="fill:none;stroke:#2f2e6b;stroke-width:5.669;stroke-linecap:butt;stroke-linejoin:miter;stroke-miterlimit:22.9256;stroke-dasharray:none;stroke-opacity:1"
         d="m 4643.45,2123.99 c 168.09,36.22 181.32,-95.94 241.44,-97.61" /><path
         id="path1083"
         style="fill:none;stroke:#2f2e6b;stroke-width:5.669;stroke-linecap:butt;stroke-linejoin:miter;stroke-miterlimit:22.9256;stroke-dasharray:none;stroke-opacity:1"
         d="m 4873.51,2000.34 c 35.12,-3.96 66.66,-43.15 58.19,-81.3" /><path
         id="path1085"
         style="fill:none;stroke:#2f2e6b;stroke-width:5.669;stroke-linecap:butt;stroke-linejoin:miter;stroke-miterlimit:22.9256;stroke-dasharray:none;stroke-opacity:1"
         d="m 4712.97,1165.95 c 67.73,2.07 133.16,-72.67 166.02,-87.28 32.16,-14.29 17.87,76.85 -100.07,92.93 -90.06,12.27 -9.1,53.48 55.51,1.99" /><path
         id="path1087"
         style="fill:#ffffff;fill-opacity:1;fill-rule:evenodd;stroke:none"
         d="m 4859.35,1523.96 c -7.33,-79.02 -48.7,-278.82 -75.9,-335.17 v 0 c -148.34,-28.16 -434.62,51.35 -434.62,51.35 l 12.86,95.94 c 0,0 200.3,-17.69 322.94,-27.93 9.31,82.07 15.36,187.65 19.45,236.5 2.85,34.02 23.51,118.84 92.59,114.17 51.78,-3.5 67.85,-79.09 62.68,-134.86" /><path
         id="path1089"
         style="fill:none;stroke:#2f2e6b;stroke-width:5.669;stroke-linecap:butt;stroke-linejoin:miter;stroke-miterlimit:22.9256;stroke-dasharray:none;stroke-opacity:1"
         d="m 4859.35,1523.96 c -7.33,-79.02 -48.7,-278.82 -75.9,-335.17 v 0 c -148.34,-28.16 -434.62,51.35 -434.62,51.35 l 12.86,95.94 c 0,0 200.3,-17.69 322.94,-27.93 9.31,82.07 15.36,187.65 19.45,236.5 2.85,34.02 23.51,118.84 92.59,114.17 51.78,-3.5 67.85,-79.09 62.68,-134.86 z" /><path
         id="path1091"
         style="fill:none;stroke:#2f2e6b;stroke-width:5.669;stroke-linecap:butt;stroke-linejoin:miter;stroke-miterlimit:22.9256;stroke-dasharray:none;stroke-opacity:1"
         d="m 4684.63,1308.15 c 39.53,-12.66 62.76,-32.88 80.79,-76.12 18.03,-43.24 13.1,47.62 -20.01,68" /><path
         id="path1093"
         style="fill:none;stroke:#8cb2ef;stroke-width:5.669;stroke-linecap:butt;stroke-linejoin:miter;stroke-miterlimit:22.9256;stroke-dasharray:none;stroke-opacity:1"
         d="M 5739.72,9.87891 H 2723.67" /><path
         id="path1095"
         style="fill:none;stroke:#8fb2ee;stroke-width:5.669;stroke-linecap:butt;stroke-linejoin:miter;stroke-miterlimit:22.9256;stroke-dasharray:none;stroke-opacity:1"
         d="m 1564.69,15.9297 h 45.92 V 713.32 h -45.92 z" /><path
         id="path1097"
         style="fill:none;stroke:#8fb2ee;stroke-width:5.669;stroke-linecap:butt;stroke-linejoin:miter;stroke-miterlimit:22.9256;stroke-dasharray:none;stroke-opacity:1"
         d="m 1001.85,15.9297 h 45.92 V 713.32 h -45.92 z" /><path
         id="path1099"
         style="fill:#e6e8f6;fill-opacity:1;fill-rule:evenodd;stroke:none"
         d="m 1009.74,828.961 c 205.28,0 410.55,0 615.83,0 39.56,0 71.92,-42.152 71.92,-93.66 V 704.09 c 0,-12.371 -7.77,-22.481 -17.26,-22.481 -241.71,0 -483.43,0 -725.148,0 -9.496,0 -17.266,10.11 -17.266,22.481 v 31.211 c 0,51.508 32.368,93.66 71.924,93.66" /><path
         id="path1101"
         style="fill:#e6e8f6;fill-opacity:1;fill-rule:evenodd;stroke:none"
         d="m 1076.8,1417.77 h 481.71 c 73.73,0 134.05,-60.33 134.05,-134.05 v -193.53 c 0,-73.73 -60.32,-134.061 -134.05,-134.061 H 1076.8 c -73.73,0 -134.046,60.331 -134.046,134.061 v 193.53 c 0,73.72 60.316,134.05 134.046,134.05" /><path
         id="path1103"
         style="fill:#8cb2ef;fill-opacity:1;fill-rule:evenodd;stroke:none"
         d="m 1086.82,960.539 473.64,5.633 23.15,709.198 c -68.58,38.2 -154.93,58.35 -252.62,58.35 -97.69,0 -184.04,-20.15 -252.61,-58.35 l 8.44,-714.831" /><path
         id="path1113"
         style="fill:#4247ca;fill-opacity:1;fill-rule:evenodd;stroke:none"
         d="m 1089.85,996.91 c -2.91,-48.519 8.98,-160.738 75.45,-172.469 66.48,-11.73 118.73,-5.652 168.26,-1.66 49.53,-3.992 101.78,-10.07 168.25,1.66 66.47,11.731 68.08,137.43 61.68,178.089 -188.23,8.06 -285.41,2.44 -473.64,-5.62" /><path
         id="path1115"
         style="fill:none;stroke:#8fb2ee;stroke-width:5.669;stroke-linecap:butt;stroke-linejoin:miter;stroke-miterlimit:22.9256;stroke-dasharray:none;stroke-opacity:1"
         d="m 2391.21,15.9297 h 45.92 V 713.32 h -45.92 z" /><path
         id="path1117"
         style="fill:none;stroke:#8fb2ee;stroke-width:5.669;stroke-linecap:butt;stroke-linejoin:miter;stroke-miterlimit:22.9256;stroke-dasharray:none;stroke-opacity:1"
         d="m 1828.38,15.9297 h 45.92 V 713.32 h -45.92 z" /><path
         id="path1119"
         style="fill:#e6e8f6;fill-opacity:1;fill-rule:evenodd;stroke:none"
         d="m 1836.26,828.961 c 205.28,0 410.56,0 615.84,0 39.55,0 71.92,-42.152 71.92,-93.66 V 704.09 c 0,-12.371 -7.77,-22.481 -17.27,-22.481 -241.71,0 -483.43,0 -725.14,0 -9.5,0 -17.27,10.11 -17.27,22.481 v 31.211 c 0,51.508 32.37,93.66 71.92,93.66" /><path
         id="path1121"
         style="fill:#e6e8f6;fill-opacity:1;fill-rule:evenodd;stroke:none"
         d="m 1903.33,1417.77 h 481.71 c 73.73,0 134.05,-60.33 134.05,-134.05 v -193.53 c 0,-73.73 -60.32,-134.061 -134.05,-134.061 h -481.71 c -73.73,0 -134.05,60.331 -134.05,134.061 v 193.53 c 0,73.72 60.32,134.05 134.05,134.05" /><path
         id="path1123"
         style="fill:none;stroke:#8fb2ee;stroke-width:5.669;stroke-linecap:butt;stroke-linejoin:miter;stroke-miterlimit:22.9256;stroke-dasharray:none;stroke-opacity:1"
         d="M 4767.4,15.9297 H 0" /><path
         id="path1125"
         style="fill:#4247ca;fill-opacity:1;fill-rule:evenodd;stroke:none"
         d="M 1029.06,903.621 1130.85,77.9102 1240,72.9492 c -4.41,307.6598 -7.02,523.0118 -11.42,830.6718 -5.09,81 -97.39,94.18 -136.63,92.301 -21.43,-1.031 -57.08,-26.371 -62.89,-92.301" /><path
         id="path1127"
         style="fill:none;stroke:#2f2e6b;stroke-width:5.669;stroke-linecap:butt;stroke-linejoin:miter;stroke-miterlimit:22.9256;stroke-dasharray:none;stroke-opacity:1"
         d="m 1160.94,142.832 -76.51,744.066" /><path
         id="path1129"
         style="fill:#4247ca;fill-opacity:1;fill-rule:evenodd;stroke:none"
         d="M 1613.42,896.922 1516.32,83.6016 1409.19,70.9102 c 4.65,309.3008 -2.11,516.7108 2.54,826.0118 7.92,113.198 105.07,101.879 151.92,101.879 20.39,0 57.45,-32.071 49.77,-101.879" /><path
         id="path1131"
         style="fill:none;stroke:#2f2e6b;stroke-width:5.669;stroke-linecap:butt;stroke-linejoin:miter;stroke-miterlimit:22.9256;stroke-dasharray:none;stroke-opacity:1"
         d="m 1488.55,138.16 87.4,769.852" /><path
         id="path1133"
         style="fill:#2f2e6b;fill-opacity:1;fill-rule:evenodd;stroke:none"
         d="m 1590.73,15.9219 c 0.48,8.2383 2.65,25.8984 -7.34,31.7773 -7.3,4.2891 -35.01,2.2617 -39.39,3.6328 -5.35,1.668 -33.62,40.25 -39.21,47.3789 h -55.81 l -26.25,-26.4804 -3.28,-56.3086 h 171.28" /><path
         id="path1135"
         style="fill:#2f2e6b;fill-opacity:1;fill-rule:evenodd;stroke:none"
         d="m 1077.33,15.9219 c 0,8.0469 -1.15,25.2773 9.19,31.0273 7.55,4.1914 12.48,2.1992 16.95,3.5391 5.45,1.6328 35.95,39.3125 41.96,46.2617 h 55.81 l 24.71,-25.8516 V 15.9219 h -148.62" /><path
         id="path1137"
         style="fill:#8cb2ef;fill-opacity:1;fill-rule:evenodd;stroke:none"
         d="M 1081.32,1674.61 C 972.449,1609.7 869.102,1221.74 882.938,1125.3 l 143.662,57.57 c 19.86,63.65 49.29,175.19 49.29,175.19 0,0 32.97,217.91 5.43,316.55" /><path
         id="path1139"
         style="fill:#8cb2ef;fill-opacity:1;fill-rule:evenodd;stroke:none"
         d="m 1581.58,1675.35 c 76.37,-52.14 170.2,-331.56 188.85,-479.45 l -153.41,2.16 c -18.57,64.05 -36.48,160.7 -36.48,160.7 0,0 -28.51,218.53 1.04,316.59" /><path
         id="path1141"
         style="fill:none;stroke:#2f2e6b;stroke-width:5.669;stroke-linecap:butt;stroke-linejoin:miter;stroke-miterlimit:22.9256;stroke-dasharray:none;stroke-opacity:1"
         d="m 1232.09,651.629 c -1.08,79.141 -2.22,161.582 -3.51,251.992 -5.09,81 -97.39,94.18 -136.63,92.301 -21.43,-1.031 -57.08,-26.371 -62.89,-92.301" /><path
         id="path1143"
         style="fill:none;stroke:#2f2e6b;stroke-width:5.669;stroke-linecap:butt;stroke-linejoin:miter;stroke-miterlimit:22.9256;stroke-dasharray:none;stroke-opacity:1"
         d="m 1410.9,343.039 c 1.07,79.281 1.33,472.762 2.63,563.313 5.09,81.128 97.39,94.328 136.63,92.449" /><path
         id="path1211"
         style="fill:none;stroke:#ffffff;stroke-width:5.669;stroke-linecap:butt;stroke-linejoin:miter;stroke-miterlimit:22.9256;stroke-dasharray:none;stroke-opacity:1"
         d="m 646.852,1194.62 c -11.93,-42.41 -40.895,-89.37 -149.954,-89.37 -109.054,0 -131.207,66.66 -134.613,89.37" /><path
         id="path1249"
         style="fill:none;stroke:#ffffff;stroke-width:5.669;stroke-linecap:butt;stroke-linejoin:miter;stroke-miterlimit:22.9256;stroke-dasharray:none;stroke-opacity:1"
         d="M 455.316,180.051 C 422.273,457.469 392.672,645.488 378.953,954.609" /><path
         id="path1251"
         style="fill:#fefefe;fill-opacity:1;fill-rule:evenodd;stroke:none"
         d="m 514.863,211.141 -108.09,-1.332 3.977,-32.489 h 104.113 v 33.821" /><path
         id="path1267"
         style="fill:#444564;fill-opacity:1;fill-rule:evenodd;stroke:none"
         d="m 2196.27,2044.43 c -33.32,39.05 -127.98,25.46 -163.21,-2.31 -72.37,-57.05 -46.51,-112.75 -91.18,-155.13 -21.06,-19.97 -52.15,-14.51 -83.87,-50.26 -23.81,-26.84 -1.35,-59.53 -17.25,-90.26 -12.46,-24.09 -55.16,-11.53 -78.82,-76.78 -11.9,-32.85 4.85,-99.18 80.03,-105.45 61.83,-5.15 116.34,58.27 128.76,68.32 51.28,41.47 151.74,-15.49 199.59,117.5 11.59,21.68 30.36,1.77 30.36,1.77 215.35,74.25 127.71,341.4 -4.41,292.6" /><path
         id="path1269"
         style="fill:#e3b455;fill-opacity:1;fill-rule:evenodd;stroke:none"
         d="m 2318.97,1573.94 c 19.01,-24.38 31.42,-31.68 74.68,-165.55 43.26,-133.87 54.67,-148.86 60.01,-168.2 6.52,-23.51 -31.76,-28.37 -79.86,-47.55 -29.52,-11.76 -83.51,205.12 -89.34,230.23 -10.1,43.48 -63.35,148.73 34.51,151.07" /><path
         id="path1271"
         style="fill:#ffffff;fill-opacity:1;fill-rule:evenodd;stroke:none"
         d="m 2303.3,1623.83 c 51.65,-33.83 92.12,-150.8 126.32,-283.53 l -116.78,-48.39 c -20.25,67.15 -31.19,131.05 -31.19,131.05 0,0 -8.32,100.78 21.65,200.87" /><path
         id="path1273"
         style="fill:none;stroke:#2f2e6b;stroke-width:5.669;stroke-linecap:butt;stroke-linejoin:miter;stroke-miterlimit:22.9256;stroke-dasharray:none;stroke-opacity:1"
         d="m 2303.3,1623.83 c 51.65,-33.83 92.12,-150.8 126.32,-283.53 l -116.78,-48.39 c -20.25,67.15 -31.19,131.05 -31.19,131.05 0,0 -8.32,100.78 21.65,200.87 z" /><path
         id="path1275"
         style="fill:#8fb2ee;fill-opacity:1;fill-rule:evenodd;stroke:none"
         d="m 2058.9,825.969 346.58,2.992 c -3.38,81.488 35.54,180.619 2.45,206.259 -31.93,11.77 -114.13,-0.29 -146.58,4.69 -3.32,15.62 -3.78,20.41 -5.17,26.02 -94.16,12.54 -227.19,-5.71 -313.69,-2.95 -17.64,-44.3 -109.47,-236.152 116.41,-237.011" /><path
         id="path1277"
         style="fill:#e3b455;fill-opacity:1;fill-rule:evenodd;stroke:none"
         d="m 2289.96,54.1992 v 12.6094 l 7.35,141.9614 h 68.37 l -7.34,-120.0083 c 1.71,-5.3515 12.48,-17.9219 21.33,-27.4726 5.45,-5.8907 10.17,-10.6172 11.57,-11.8203 15.63,-13.25 24.94,-12.2774 24.94,-29.3477 h -126.22 v 34.0781" /><path
         id="path1279"
         style="fill:#2f2e6b;fill-opacity:1;fill-rule:evenodd;stroke:none"
         d="m 2416.18,20.1211 v -4.1914 h -126.22 v 4.1914 z m 0,0 c 0,17.0703 -9.31,16.0977 -24.94,29.3477 -1.4,1.2031 -6.13,5.9296 -11.57,11.8203 -8.85,9.5507 8.17,-19.7774 6.47,-14.418 h -47.4 l -48.78,19.9375 V 20.1211 h 126.22" /><path
         id="path1281"
         style="fill:#8fb2ee;fill-opacity:1;fill-rule:evenodd;stroke:none"
         d="m 2480.01,935.109 -89.94,-749.687 h -98.61 c 3.82,283.469 5.73,466.219 9.55,749.687 12.25,81.721 66.32,100.721 98.53,100.721 27.45,0 90.07,-22.81 80.47,-100.721" /><path
         id="path1283"
         style="fill:#f66f82;fill-opacity:1;fill-rule:evenodd;stroke:none"
         d="m 2256.18,1065.93 c -12.95,78.08 -9.27,234.2 3.42,321.36 17.53,27.2 34.86,40.61 41.38,64.59 7.1,26.1 -1.35,70.61 -6.33,86.89 4.31,21.4 9.92,61.43 12.6,83.44 -40.12,39.39 -111.9,72.75 -186.72,72.75 -74.83,0 -146.2,-36.63 -186.32,-76.02 22.44,-184.36 41.78,-353.99 8.28,-555.96 99.14,0 214.78,2.95 313.69,2.95" /><path
         id="path1285"
         style="fill:none;stroke:#4247ca;stroke-width:5.669;stroke-linecap:butt;stroke-linejoin:miter;stroke-miterlimit:22.9256;stroke-dasharray:none;stroke-opacity:1"
         d="m 1781.62,1535.81 c 125.18,-0.27 114.54,95.83 157.09,106.16" /><path
         id="path1287"
         style="fill:none;stroke:#4247ca;stroke-width:5.669;stroke-linecap:butt;stroke-linejoin:miter;stroke-miterlimit:22.9256;stroke-dasharray:none;stroke-opacity:1"
         d="m 2297.23,1989.76 c 51.78,-27.63 76.43,-107.44 39.98,-161.14" /><path
         id="path1289"
         style="fill:#e3b455;fill-opacity:1;fill-rule:evenodd;stroke:none"
         d="m 2068.16,1694.51 c 0,-37.74 79.52,-179.25 110.8,-174.75 24.63,3.54 2.64,145.05 2.64,174.75 0,40.83 0,68.23 0,109.06 -37.81,0 -75.63,62.65 -113.44,62.65 0,-40.83 0,-130.88 0,-171.71" /><path
         id="path1291"
         style="fill:#d2a957;fill-opacity:1;fill-rule:evenodd;stroke:none"
         d="m 2181.6,1717.63 v 56.56 l -105.38,26.94 -8.06,-20.76 c 1.34,-8.09 7.92,-52.59 36.86,-76.47 28.95,-23.88 64.26,-3 76.58,13.73" /><path
         id="path1293"
         style="fill:#e3b455;fill-opacity:1;fill-rule:evenodd;stroke:none"
         d="m 2140.92,2029.27 c 27.58,-0.29 110.66,-2 113.19,-98.82 2.54,-96.81 -11.56,-129.15 -19.34,-147.05 -8.92,-20.51 -25.19,-47.53 -54.52,-48.27 -63.19,-1.6 -88.19,25.18 -105.13,43.5 -13.24,14.33 -34.37,49.61 -34.01,146.46 0.35,96.84 72.25,103.27 99.81,104.18" /><path
         id="path1295"
         style="fill:#e3b455;fill-opacity:1;fill-rule:evenodd;stroke:none"
         d="m 2055.07,1878.88 c -2.56,6.42 -5.66,10.88 -13.68,12.47 -8.02,1.59 -22.49,-2.65 -22.2,-25.32 0.29,-22.67 19.41,-41.94 31.33,-39.11 11.93,2.84 5.76,45.92 4.55,51.96" /><path
         id="path1297"
         style="fill:#444564;fill-opacity:1;fill-rule:evenodd;stroke:none"
         d="m 2253.9,1893.17 c 17.47,87.15 -14.01,151.63 -110.79,151.78 -96.79,0.14 -118.14,-79.38 -101.72,-153.6 38.85,-7.89 47.14,2.33 70.88,38.01 25.03,37.62 36.36,68.37 86.16,69.46 40.08,0.88 71.85,-64.87 55.47,-105.65" /><path
         id="path1299"
         style="fill:#f66f82;fill-opacity:1;fill-rule:evenodd;stroke:none"
         d="m 2042.31,1831.02 c 3.89,0.03 7.07,-3.07 7.11,-6.96 0.05,-3.87 -3.06,-7.06 -6.94,-7.1 -3.89,-0.05 -7.07,3.06 -7.11,6.95 -0.05,3.88 3.07,7.06 6.94,7.11" /><path
         id="path1303"
         style="fill:#2f2e6b;fill-opacity:1;fill-rule:evenodd;stroke:none"
         d="m 2229.81,1893.36 c -5.2,-0.09 -9.55,-5.36 -9.7,-11.75 -0.15,-6.4 3.95,-11.51 9.16,-11.41 5.2,0.1 9.55,5.37 9.7,11.76 0.15,6.4 -3.95,11.51 -9.16,11.4" /><path
         id="path1305"
         style="opacity:1;fill:#e3b455;fill-opacity:1;stroke:#2f2e6b;stroke-width:4.252;stroke-linecap:butt;stroke-linejoin:miter;stroke-miterlimit:22.9256;stroke-dasharray:none;stroke-opacity:1;filter:url(#filter1527)"
         d="m 2047.75,1867.56 c -0.03,2.84 -11.19,15.85 -20.52,6.8" /><path
         id="path1307"
         style="fill:#2f2e6b;fill-opacity:1;fill-rule:evenodd;stroke:none"
         d="m 2140.12,1892.36 c 5.21,0.02 9.67,-5.15 9.96,-11.54 0.3,-6.39 -3.68,-11.59 -8.89,-11.61 -5.21,-0.02 -9.67,5.15 -9.96,11.54 -0.3,6.39 3.68,11.59 8.89,11.61" /><path
         id="path1309"
         style="fill:none;stroke:#2f2e6b;stroke-width:5.669;stroke-linecap:butt;stroke-linejoin:miter;stroke-miterlimit:22.9256;stroke-dasharray:none;stroke-opacity:1"
         d="m 2206.87,1915.01 c -21.87,-22.67 -9.57,-68.38 -6.41,-78.01 3.16,-9.63 -11.1,-8.27 -11.1,-8.27" /><path
         id="path1311"
         style="fill:none;stroke:#2f2e6b;stroke-width:5.669;stroke-linecap:butt;stroke-linejoin:miter;stroke-miterlimit:22.9256;stroke-dasharray:none;stroke-opacity:1"
         d="m 2215.05,1806.13 c 0,0 -18.15,-13.94 -49.34,-0.04" /><path
         id="path1313"
         style="fill:none;stroke:#2f2e6b;stroke-width:5.669;stroke-linecap:butt;stroke-linejoin:miter;stroke-miterlimit:22.9256;stroke-dasharray:none;stroke-opacity:1"
         d="m 2197.47,1786.96 c 0,0 -6.73,-5.17 -18.29,-0.03" /><path
         id="path1315"
         style="fill:none;stroke:#2f2e6b;stroke-width:5.669;stroke-linecap:butt;stroke-linejoin:miter;stroke-miterlimit:22.9256;stroke-dasharray:none;stroke-opacity:1"
         d="m 2154.28,1916.7 c 0,0 -12.65,9.27 -33.8,-0.73" /><path
         id="path1317"
         style="fill:none;stroke:#2f2e6b;stroke-width:5.669;stroke-linecap:butt;stroke-linejoin:miter;stroke-miterlimit:22.9256;stroke-dasharray:none;stroke-opacity:1"
         d="m 2212.42,1917.36 c 0,0 12.43,9.55 33.8,0.03" /><path
         id="path1319"
         style="fill:none;stroke:#2f2e6b;stroke-width:5.669;stroke-linecap:butt;stroke-linejoin:miter;stroke-miterlimit:22.9256;stroke-dasharray:none;stroke-opacity:1"
         d="m 2162.3,1733.8 c -28.96,1.69 -66.43,15.42 -95.96,58.65" /><path
         id="path1321"
         style="fill:#e3b455;fill-opacity:1;fill-rule:evenodd;stroke:none"
         d="m 1948.52,1608.46 c -25.3,-5.49 -39.61,-19.99 -98.86,-152.21 -59.24,-132.21 -62.68,-247.86 -61.48,-271.44 42.37,-6.12 54.44,9.15 89.18,31.4 33.38,68.8 85.41,191.25 94.58,212.76 17.5,41.08 72.54,160.2 -23.42,179.49" /><path
         id="path1323"
         style="fill:#ffffff;fill-opacity:1;fill-rule:evenodd;stroke:none"
         d="m 1853.97,1487.1 c -21.39,-49.55 -40.92,-104.56 -56.09,-152.24 l 127.53,-35.63 c 31.59,66.4 56.99,122.73 73.17,169.22 30.26,86.91 27.57,146.02 -13.98,159.61 -49.39,16.16 -81.99,-28.25 -130.63,-140.96" /><path
         id="path1325"
         style="fill:none;stroke:#2f2e6b;stroke-width:5.669;stroke-linecap:butt;stroke-linejoin:miter;stroke-miterlimit:22.9256;stroke-dasharray:none;stroke-opacity:1"
         d="m 1853.97,1487.1 c -21.39,-49.55 -40.92,-104.56 -56.09,-152.24 l 127.53,-35.63 c 31.59,66.4 56.99,122.73 73.17,169.22 30.26,86.91 27.57,146.02 -13.98,159.61 -49.39,16.16 -81.99,-28.25 -130.63,-140.96 z" /><path
         id="path1327"
         style="fill:#e3b455;fill-opacity:1;fill-rule:evenodd;stroke:none"
         d="m 2022.58,86.1914 2.9,13.5508 20.71,149.8988 73.5,-15.782 -15.64,-126.3 c 0.6,-6.137 9.27,-22.1371 16.58,-34.4496 4.5,-7.5781 8.48,-13.7578 9.72,-15.3711 13.74,-17.8477 23.97,-18.957 20.03,-37.3086 l -135.67,29.1289 7.87,36.6328" /><path
         id="path1329"
         style="fill:#2f2e6b;fill-opacity:1;fill-rule:evenodd;stroke:none"
         d="m 2150.38,20.4297 -0.97,-4.5 -135.67,29.1211 0.97,4.5078 z m 0,0 c 3.94,18.3398 -6.29,19.4609 -20.03,37.3086 -1.24,1.6133 -5.22,7.793 -9.72,15.3711 -7.3,12.3125 4.23,-23.1406 3.63,-16.9883 l -50.94,10.9297 -47.84,32.6914 -10.77,-50.1836 135.67,-29.1289 v 0" /><path
         id="path1331"
         style="fill:#8fb2ee;fill-opacity:1;fill-rule:evenodd;stroke:none"
         d="m 2295.34,926.359 -161.95,-729.039 -96.4,20.7 c 34.3,282.57 55.23,444.582 89.53,727.152 10.68,77.388 78.01,106.668 112.64,99.238 37.7,-8.09 73.98,-34.17 56.18,-118.051" /><path
         id="path1333"
         style="fill:none;stroke:#2f2e6b;stroke-width:5.669;stroke-linecap:butt;stroke-linejoin:miter;stroke-miterlimit:22.9256;stroke-dasharray:none;stroke-opacity:1"
         d="m 2126.52,945.172 c 10.68,77.388 78.01,106.668 112.64,99.238 37.7,-8.09 73.98,-34.17 56.18,-118.051 L 2174.75,383.512" /><path
         id="path1335"
         style="fill:none;stroke:#2f2e6b;stroke-width:5.669;stroke-linecap:butt;stroke-linejoin:miter;stroke-miterlimit:22.9256;stroke-dasharray:none;stroke-opacity:1"
         d="m 2331.03,1005.12 c 21.41,23.72 48.98,30.71 68.51,30.71 27.45,0 90.07,-22.81 80.47,-100.721 l -75.83,-632.078" /><path
         id="path1337"
         style="fill:none;stroke:#2f2e6b;stroke-width:5.669;stroke-linecap:butt;stroke-linejoin:miter;stroke-miterlimit:22.9256;stroke-dasharray:none;stroke-opacity:1"
         d="m 2064.4,1342.6 c 0,0 110.08,28.91 147.39,29.85" /><path
         id="path1339"
         style="fill:#e3b455;fill-opacity:1;fill-rule:evenodd;stroke:none"
         d="m 2075.75,1081.95 c 1.05,0.57 18.09,-3.13 19.89,-2.12 17.57,9.98 63.21,37.45 65.65,38.12 2.68,0.74 44.84,-2.74 44.84,-2.74 l 41.63,-30.81 c 0,0 -15.51,-1.4 -20.71,0.18 -5.22,1.6 -17.47,11.92 -17.47,11.92 l -21.64,-0.65 17.07,-11.02 c 0,0 44.88,-36.26 47.48,-37.27 2.59,-1.02 -11.27,-4.72 -18.63,-2.13 -7.37,2.58 -27.45,15.08 -27.45,15.08 0,0 23.12,-21.92 25.63,-24.69 -1.63,-2.33 -7.75,-3.73 -12.52,-2.16 l 1.27,-2.12 c 0,0 -9.04,-4.38 -19.53,-2.52 -10.48,1.86 -15.98,6.56 -15.98,6.56 0,0 -20.8,-1.59 -24.32,-1.4 -3.53,0.18 -20.95,-4.22 -28.12,-6.5 -7.17,-2.28 -32.93,-5.8 -37.68,-3.8 -4.75,2 -14.27,4.97 -14.27,4.97 l -5.14,53.1" /><path
         id="path1341"
         style="fill:none;stroke:#2f2e6b;stroke-width:5.669;stroke-linecap:butt;stroke-linejoin:miter;stroke-miterlimit:22.9256;stroke-dasharray:none;stroke-opacity:1"
         d="m 2178.73,1081.6 c 0,0 8.77,-4.89 16.56,-11.33 7.79,-6.44 13.56,-13.44 13.56,-13.44" /><path
         id="path1343"
         style="fill:none;stroke:#2f2e6b;stroke-width:5.669;stroke-linecap:butt;stroke-linejoin:miter;stroke-miterlimit:22.9256;stroke-dasharray:none;stroke-opacity:1"
         d="m 2219.07,1033.63 c -8.24,3.88 -23.75,13.72 -27.87,15.66 -4.13,1.93 -27.11,4.46 -27.11,4.46" /><path
         id="path1345"
         style="fill:#e3b455;fill-opacity:1;fill-rule:evenodd;stroke:none"
         d="m 1876.64,1216.19 c 72.79,-34.82 144.58,-90.78 216.54,-136.49 18.98,-23.9 11.84,-21.14 -12.29,-50.85 -62.83,32.74 -272.35,93 -293.16,157.1 23.26,12.41 66.8,41.93 88.91,30.24" /><path
         id="path1347"
         style="fill:#e3b455;fill-opacity:1;fill-rule:evenodd;stroke:none"
         d="m 2453.66,1240.19 c 72.8,-34.82 138.53,-94.8 210.49,-140.51 18.98,-23.91 11.84,-21.14 -12.29,-50.86 -62.82,32.74 -272.35,93 -293.16,157.1 23.26,12.42 72.85,45.96 94.96,34.27" /><path
         id="path1349"
         style="fill:#e4a421;fill-opacity:1;fill-rule:evenodd;stroke:none"
         d="m 2753.42,880.832 c 6.53,-96.742 95.78,-221.902 95.78,-221.902 l 32.5,26.179 c 0,0 -47.3,167.68 -59.83,205.313 l -68.45,-9.59" /><path
         id="path1351"
         style="fill:#e4a421;fill-opacity:1;fill-rule:evenodd;stroke:none"
         d="m 2732.08,1142.55 c -32.19,-36.85 6.48,-225.741 20.56,-261.671 l 69.77,5.691 c -8.62,38.711 -12.46,202.39 -16.1,218.13 -6.24,26.97 -54.12,60.88 -74.23,37.85" /><path
         id="path1353"
         style="fill:#ffffff;fill-opacity:1;fill-rule:evenodd;stroke:none"
         d="m 2748.97,1160.94 c -40.22,-5.51 -52.53,-73.35 -28.97,-182.838 l 106.62,12.507 c -8.03,61.681 -11.31,179.431 -77.65,170.331" /><path
         id="path1355"
         style="fill:none;stroke:#2f2e6b;stroke-width:5.669;stroke-linecap:butt;stroke-linejoin:miter;stroke-miterlimit:22.9256;stroke-dasharray:none;stroke-opacity:1"
         d="m 2748.97,1160.94 c -40.22,-5.51 -52.53,-73.35 -28.97,-182.838 l 106.62,12.507 c -8.03,61.681 -11.31,179.431 -77.65,170.331 z" /><path
         id="path1357"
         style="fill:#e4a421;fill-opacity:1;fill-rule:evenodd;stroke:none"
         d="m 2844.71,677.879 c -1.04,-11.047 -6.85,-33.949 -6.94,-42.789 -0.04,-2.891 0.83,-8.41 2.4,-22.051 0.63,-13.891 -0.72,-28.32 -0.72,-28.32 0,0 5.78,0.332 8.11,5.242 2.33,4.918 5.66,14.84 5.32,20.91 -0.34,6.07 -1.62,15.469 -1.31,17.66 4.46,-7.07 8.09,-14.531 8.09,-14.531 0.2,-8.602 -0.63,-19.668 -0.68,-26 -2.14,-3.789 -5.75,-13.809 -5.75,-13.809 -1.13,-0.261 -6.09,-7.742 -6.35,-10.8 3.87,-1.481 7.47,-1.321 7.47,-1.321 -0.6,-1.191 -0.67,-2.488 -0.24,-3.488 l 11.13,3.227 8.71,7.461 4.73,1.128 15.5,18.274 6.83,9.957 -2.88,28.109 c 0,0 -12.68,39.742 -13.9,45.762 -0.3,1.52 -1.24,6.238 -2.53,12.609 l -36.99,-7.23" /><path
         id="path1359"
         style="fill:none;stroke:#2f2e6b;stroke-width:5.669;stroke-linecap:butt;stroke-linejoin:miter;stroke-miterlimit:22.9256;stroke-dasharray:none;stroke-opacity:1"
         d="m 2854.35,562.07 5.08,2.602 13.47,20.91 -0.02,25.578" /><path
         id="path1361"
         style="fill:none;stroke:#2f2e6b;stroke-width:5.669;stroke-linecap:butt;stroke-linejoin:miter;stroke-miterlimit:22.9256;stroke-dasharray:none;stroke-opacity:1"
         d="m 2875.6,569.051 9.3,15.621 0.3,23.168" /><path
         id="path1363"
         style="fill:#4247ca;fill-opacity:1;fill-rule:evenodd;stroke:none"
         d="m 2791.6,853.391 c 14.83,-133.981 26.24,-271.551 27.67,-399.27 1.33,-118.59 -3.72,-219.769 -9,-316.98 l -76.6,-8.161 c -31.74,116.141 -34.02,233.211 -34.17,329.829 -32.95,97.082 -55.85,175.402 -64.97,265.793 -3.85,38.078 18.35,88.918 14.1,128.789 h 142.97" /><path
         id="path1365"
         style="fill:#e4a421;fill-opacity:1;fill-rule:evenodd;stroke:none"
         d="m 2606.53,35.8281 h -51.16 l -1.84,85.8519 h 51.16 l 1.84,-85.8519" /><path
         id="path1367"
         style="fill:#f66f82;fill-opacity:1;fill-rule:evenodd;stroke:none"
         d="m 2650.23,15.9297 c -0.14,6.4687 0.29,20.332 -6.38,24.9492 -4.86,3.3711 -7.96,1.7695 -10.82,2.8399 -3.5,1.3203 -23.53,31.6132 -27.47,37.2031 h -35.45 l -15.26,-20.7813 0.95,-44.2109 h 94.43" /><path
         id="path1369"
         style="fill:#4247ca;fill-opacity:1;fill-rule:evenodd;stroke:none"
         d="m 2532.58,853.391 c -31.1,-252.243 -16.71,-499.321 7.22,-714.86 25.9,0 55.63,0 81.53,0 24.86,207.649 47.41,439.731 50.72,714.828 l -139.47,0.032" /><path
         id="path1371"
         style="fill:#e4a421;fill-opacity:1;fill-rule:evenodd;stroke:none"
         d="m 2739.4,34.6094 h 63.15 l 4.42,94.1796 h -63.15 l -4.42,-94.1796" /><path
         id="path1373"
         style="fill:#f66f82;fill-opacity:1;fill-rule:evenodd;stroke:none"
         d="m 2738.62,17.9414 h 134.18 c 0,0 5.2,18.6875 -2.4,25.0781 -19.08,16.0313 -40.37,17.7696 -58.57,25.2618 -5.09,2.0976 -9.52,1.7382 -18.92,-3.6524 l -22.33,-12.8281 -30.37,-0.1016 -1.59,-33.7578" /><path
         id="path1375"
         style="fill:#2f2e6b;fill-opacity:1;fill-rule:evenodd;stroke:none;filter:url(#filter1575)"
         d="m 2531.82,150.859 h 91.73 l 1.03,-48.507 h -91.72 l -1.04,48.507" /><path
         id="path1377"
         style="fill:#2f2e6b;fill-opacity:1;fill-rule:evenodd;stroke:none"
         d="m 2726.7,140.41 88.33,10.289 -2.81,-45.847 -83.99,-11.4028 -1.53,46.9608" /><path
         id="path1379"
         style="fill:#f66f82;fill-opacity:1;fill-rule:evenodd;stroke:none"
         d="m 2811.83,68.2813 -3.56,22.9804 c 0,0 -20.11,-3.7422 -22.95,-12.4531 -2.84,-8.707 8.04,-25.5195 8.04,-25.5195 l 18.47,14.9922" /><path
         id="path1381"
         style="fill:#f66f82;fill-opacity:1;fill-rule:evenodd;stroke:none"
         d="m 2807.8,682.602 h -292.14 l 13.35,316.968 -33.16,135.38 c 31.61,24 75.77,47.44 117.7,51.36 15.87,1.48 32.46,3.97 49.42,2.24 47.9,-4.9 76.64,-11.87 95.32,-22.84 40.42,-23.75 35.25,-75.97 38.16,-112.25 9.49,-118.448 17.96,-314.788 11.35,-370.858" /><path
         id="path1383"
         style="opacity:0.87;fill:#e4a421;fill-opacity:1;fill-rule:evenodd;stroke:none"
         d="m 2704.17,1153.82 c -2.84,-50.71 -81.86,-35.19 -104.09,10.8 l -7.17,117.18 94.99,-9.65 c 5.42,-39.44 10.85,-78.88 16.27,-118.33" /><path
         id="path1385"
         style="fill:#bb871c;fill-opacity:1;fill-rule:evenodd;stroke:none"
         d="m 2596.8,1218.19 -3.89,63.61 13.73,-1.39 c 28.6,-10.11 58.71,-45.29 87,-50 l 6.42,-46.7 c -3.98,-20.5 -18.06,-24.24 -37.09,-17.51 -19.03,6.74 -50.13,24.12 -66.17,51.99" /><path
         id="path1387"
         style="fill:#e4a421;fill-opacity:1;fill-rule:evenodd;stroke:none;filter:url(#filter1583)"
         d="m 2608.55,1444.39 c -21.76,-6.4 -87.11,-26.43 -65.33,-112.23 21.77,-85.79 42.36,-110.31 56.18,-120.3 17.67,-12.78 43.96,-25.1 98.96,-17.86 30.57,10.03 43.22,34.76 48.08,55.58 3.88,16.61 11.55,49.1 -12.52,134.29 -24.07,85.18 -103.33,65.86 -125.37,60.52" /><path
         id="path1389"
         style="fill:none;stroke:#2f2e6b;stroke-width:5.669;stroke-linecap:butt;stroke-linejoin:miter;stroke-miterlimit:22.9256;stroke-dasharray:none;stroke-opacity:1"
         d="m 2612.85,1344.65 c 3.81,4.26 17.76,10.71 26.85,13.06" /><path
         id="path1391"
         style="fill:none;stroke:#2f2e6b;stroke-width:5.669;stroke-linecap:butt;stroke-linejoin:miter;stroke-miterlimit:22.9256;stroke-dasharray:none;stroke-opacity:1"
         d="m 2722.45,1372.25 c -5.6,1.12 -20.64,-2.09 -29.32,-5.66" /><path
         id="path1393"
         style="fill:#2f2e6b;fill-opacity:1;fill-rule:evenodd;stroke:none"
         d="m 2637.29,1322.89 c -5.29,-1.46 -7.14,-7.72 -4.14,-13.99 3,-6.26 9.72,-10.16 15.01,-8.69 5.29,1.46 7.14,7.73 4.14,13.99 -3,6.27 -9.72,10.16 -15.01,8.69" /><path
         id="path1395"
         style="fill:#2f2e6b;fill-opacity:1;fill-rule:evenodd;stroke:none"
         d="m 2716.15,1343.59 c -4.9,-1.36 -6.62,-7.17 -3.84,-12.98 2.78,-5.81 9.02,-9.42 13.92,-8.06 4.91,1.36 6.63,7.17 3.85,12.98 -2.79,5.81 -9.02,9.42 -13.93,8.06" /><path
         id="path1397"
         style="fill:none;stroke:#2f2e6b;stroke-width:5.669;stroke-linecap:butt;stroke-linejoin:miter;stroke-miterlimit:22.9256;stroke-dasharray:none;stroke-opacity:1"
         d="m 2711.06,433.16 c 18.72,13.289 36.78,49.328 56.16,39.86 19.37,-9.461 -28.61,-39.438 -24.21,-55.461 4.39,-16.028 22.74,12.851 34.11,19.281" /><path
         id="path1399"
         style="fill:none;stroke:#2f2e6b;stroke-width:5.669;stroke-linecap:butt;stroke-linejoin:miter;stroke-miterlimit:22.9256;stroke-dasharray:none;stroke-opacity:1"
         d="m 2623.55,213.941 c 7.5,66.93 39.81,400.969 41.59,434.809" /><path
         id="path1403"
         style="fill:#e4a421;fill-opacity:1;fill-rule:evenodd;stroke:none"
         d="m 2455.26,885 c -19.13,-95.059 34.1,-239.27 34.1,-239.27 l 36.76,13.719 c 0,0 -0.1,177.211 -2.3,216.813 L 2455.26,885" /><path
         id="path1405"
         style="fill:#e4a421;fill-opacity:1;fill-rule:evenodd;stroke:none"
         d="M 2514.16,1140.78 C 2472.41,1115.28 2452.61,923.5 2455.27,885 l 68.26,-15.512 c 3.39,39.512 48.83,196.802 50.09,212.912 2.14,27.59 -33.36,74.31 -59.46,58.38" /><path
         id="path1407"
         style="fill:#ffffff;fill-opacity:1;fill-rule:evenodd;stroke:none"
         d="m 2535.8,1153.25 c -40.02,6.81 -72.12,-54.21 -82.5,-165.73 l 105.46,-20.059 c 10.84,61.249 43.05,174.569 -22.96,185.789" /><path
         id="path1409"
         style="fill:none;stroke:#2f2e6b;stroke-width:5.669;stroke-linecap:butt;stroke-linejoin:miter;stroke-miterlimit:22.9256;stroke-dasharray:none;stroke-opacity:1"
         d="m 2535.8,1153.25 c -40.02,6.81 -72.12,-54.21 -82.5,-165.73 l 105.46,-20.059 c 10.84,61.249 43.05,174.569 -22.96,185.789 z" /><path
         id="path1411"
         style="fill:#e4a421;fill-opacity:1;fill-rule:evenodd;stroke:none"
         d="m 2526.12,659.449 c 2.62,-10.789 11.68,-32.597 13.05,-41.34 0.45,-2.847 0.39,-8.437 0.8,-22.168 1.39,-13.832 4.81,-27.91 4.81,-27.91 0,0 -5.77,-0.519 -8.78,4.008 -3.03,4.531 -7.75,13.871 -8.29,19.93 -0.54,6.051 -0.63,15.531 -1.25,17.652 -3.4,-7.633 -5.91,-15.539 -5.91,-15.539 1.04,-8.543 3.46,-19.371 4.42,-25.633 2.67,-3.449 7.69,-12.84 7.69,-12.84 1.16,-0.078 7.14,-6.769 7.84,-9.769 -3.61,-2.02 -7.2,-2.379 -7.2,-2.379 0.77,-1.09 1.03,-2.359 0.74,-3.422 l -11.48,1.602 -9.7,6.109 -4.84,0.441 -17.97,15.84 -8.2,8.867 -1.2,28.243 c 0,0 6.81,41.148 7.13,47.281 0.09,1.547 0.34,6.359 0.69,12.84 l 37.65,-1.813" /><path
         id="path1413"
         style="fill:none;stroke:#2f2e6b;stroke-width:5.669;stroke-linecap:butt;stroke-linejoin:miter;stroke-miterlimit:22.9256;stroke-dasharray:none;stroke-opacity:1"
         d="m 2533.3,543.461 -5.4,1.848 -16.35,18.742 -3.68,25.308" /><path
         id="path1415"
         style="fill:none;stroke:#2f2e6b;stroke-width:5.669;stroke-linecap:butt;stroke-linejoin:miter;stroke-miterlimit:22.9256;stroke-dasharray:none;stroke-opacity:1"
         d="m 2511.26,547.309 -11.45,14.113 -3.65,22.887" /><path
         id="path1417"
         style="fill:#2f2e6b;fill-opacity:1;fill-rule:evenodd;stroke:none"
         d="m 2535.37,1302.68 24.28,-7.18 c 0,0 -7.44,38.05 -4.16,51.18 3.28,13.13 1.47,40.07 22.77,53.55 21.29,13.49 87.99,-8.25 128.85,11.85 17.6,8.66 24.31,-21.64 36.43,-66.9 0,0 4.55,16.46 4.55,42.73 0,26.26 0.63,46.07 -9.22,55.93 -9.85,9.85 -12.85,3.68 -25.26,7.69 -12.41,4 -7.85,36.57 -42.34,41.5 -34.47,4.92 -138.15,-29.81 -157.85,-52.8 -19.7,-22.99 -8.74,-86.77 4.39,-101.54 10.67,-12 2.76,-18.38 17.56,-36.01" /><path
         id="path1419"
         style="opacity:0.46;fill:#e4a421;fill-opacity:1;fill-rule:evenodd;stroke:none"
         d="m 2562.03,1306.32 c -4.91,5.19 -10.23,9.06 -18.6,8.6 -8.38,-0.46 -21.7,-8.36 -15.64,-30.83 6.06,-22.47 29.98,-36.77 41.12,-30.91 11.14,5.86 -6.88,53.14 -6.88,53.14" /><path
         id="path1421"
         style="fill:none;stroke:#2f2e6b;stroke-width:5.669;stroke-linecap:butt;stroke-linejoin:miter;stroke-miterlimit:22.9256;stroke-dasharray:none;stroke-opacity:1"
         d="m 2556.19,1292.99 c -0.75,2.81 -15.17,12.91 -22.14,1.53" /><path
         id="path1423"
         style="fill:none;stroke:#2f2e6b;stroke-width:5.669;stroke-linecap:butt;stroke-linejoin:miter;stroke-miterlimit:22.9256;stroke-dasharray:none;stroke-opacity:1"
         d="m 2517.45,1434.19 c 21.9,31.69 89.29,59.85 129.52,65.89" /><path
         id="path1425"
         style="fill:none;stroke:#2f2e6b;stroke-width:5.669;stroke-linecap:butt;stroke-linejoin:miter;stroke-miterlimit:22.9256;stroke-dasharray:none;stroke-opacity:1"
         d="m 2517.03,1434.02 c 10.88,23.56 42.37,49.08 73.57,67.14" /><path
         id="path1427"
         style="fill:none;stroke:#2f2e6b;stroke-width:5.669;stroke-linecap:butt;stroke-linejoin:miter;stroke-miterlimit:22.9256;stroke-dasharray:none;stroke-opacity:1"
         d="m 2681.69,1335.59 c 2.51,-16.82 18.25,-23.7 19.31,-29.87 1.44,-8.42 -11.44,-10.98 -11.44,-10.98" /><path
         id="path1429"
         style="fill:none;stroke:#2f2e6b;stroke-width:5.669;stroke-linecap:butt;stroke-linejoin:miter;stroke-miterlimit:22.9256;stroke-dasharray:none;stroke-opacity:1"
         d="m 2679.07,1265.49 c 20.64,-0.61 32.65,4.52 39.72,15.1" /><path
         id="path1431"
         style="fill:none;stroke:#2f2e6b;stroke-width:5.669;stroke-linecap:butt;stroke-linejoin:miter;stroke-miterlimit:22.9256;stroke-dasharray:none;stroke-opacity:1"
         d="m 2695.38,1251.6 c 0,0 8.58,3.65 14.99,5.07" /><path
         id="path1433"
         style="opacity:0;mix-blend-mode:normal;fill:none;stroke:#2f2e6b;stroke-width:5.669;stroke-linecap:butt;stroke-linejoin:miter;stroke-miterlimit:22.9256;stroke-dasharray:none;stroke-opacity:1;filter:url(#filter1591)"
         d="m 2583.8,1228.04 c 5.79,-8.05 11.06,-12.9 15.6,-16.18 17.67,-12.78 43.96,-25.1 98.96,-17.86 4.52,1.48 8.64,3.28 12.4,5.34" /><path
         id="path1435"
         style="fill:#edbb79;fill-opacity:1;fill-rule:evenodd;stroke:none"
         d="m 1320.81,1966.05 c -28.3,-4.3 -113.43,-18.23 -100.78,-129.23 12.64,-111 34.22,-145.15 49.79,-160 19.94,-18.99 50.71,-38.87 120.74,-39.17 39.93,7.35 43.55,32.23 53.18,57.43 7.67,20.11 22.68,60.55 7.05,171.17 -15.61,110.62 -101.51,102.74 -129.98,99.8" /><path
         id="path1437"
         style="fill:#e6e8f6;fill-opacity:1;fill-rule:evenodd;stroke:none"
         d="m 1257.79,1907.17 c -24.86,-28 11.69,-106.78 -35.05,-106.41 -73.45,70.88 -8.9,183.55 85.33,192.66 43.26,4.18 135.9,-7.4 130.92,-82.75 -12.78,18.18 -17.56,26.52 -29.84,29.57 -17.12,4.26 -4.33,-32.23 -35.83,-34.27 -35.89,-2.33 -80.22,40.99 -115.53,1.2" /><path
         id="path1439"
         style="fill:#edbb79;fill-opacity:1;fill-rule:evenodd;stroke:none"
         d="m 1234.73,1789.94 c -4.44,6.19 -9.51,11.05 -18.43,11.76 -8.93,0.72 -24.14,-5.71 -20.97,-30.34 3.18,-24.63 26.42,-43.18 39.04,-38.59 12.62,4.59 0.36,57.17 0.36,57.17" /><path
         id="path1441"
         style="fill:#2f2e6b;fill-opacity:1;fill-rule:evenodd;stroke:none"
         d="m 1342.55,1809.5 c 5.46,0.65 9.59,-4.32 9.24,-11.11 -0.36,-6.78 -5.06,-12.82 -10.52,-13.47 -5.46,-0.65 -9.6,4.32 -9.24,11.11 0.36,6.79 5.07,12.82 10.52,13.47" /><path
         id="path1443"
         style="fill:none;stroke:#2f2e6b;stroke-width:4.252;stroke-linecap:butt;stroke-linejoin:miter;stroke-miterlimit:22.9256;stroke-dasharray:none;stroke-opacity:1"
         d="m 1226.64,1776.69 c -0.39,3.08 -14.18,15.82 -23.18,4.79" /><path
         id="path1445"
         style="fill:#2f2e6b;fill-opacity:1;fill-rule:evenodd;stroke:none"
         d="m 1432.32,1818.65 c -5.46,-0.74 -10.56,-6.9 -11.38,-13.74 -0.83,-6.85 2.94,-11.8 8.4,-11.06 5.46,0.74 10.56,6.89 11.39,13.73 0.82,6.85 -2.94,11.8 -8.41,11.07" /><path
         id="path1447"
         style="fill:none;stroke:#ffffff;stroke-width:14.173;stroke-linecap:round;stroke-linejoin:miter;stroke-miterlimit:22.9256;stroke-dasharray:none;stroke-opacity:1"
         d="m 1321.42,1828.28 c 5.6,4.54 24.28,9.79 36.08,10.9" /><path
         id="path1449"
         style="fill:none;stroke:#ffffff;stroke-width:14.173;stroke-linecap:round;stroke-linejoin:miter;stroke-miterlimit:22.9256;stroke-dasharray:none;stroke-opacity:1"
         d="m 1447.15,1845.26 c -6.75,2.53 -26.12,1.59 -37.66,-1.09" /><path
         id="path1451"
         style="fill:#e6e8f6;fill-opacity:1;fill-rule:evenodd;stroke:none"
         d="m 1368.57,1706.39 c 3.17,13.35 62.73,18.88 67.9,6.43 5.16,-12.46 -19.59,-25.09 -33.77,-25.27 -14.19,-0.17 -38.89,-1.26 -34.13,18.84 z m 38.3,29.37 c -28.26,-2.88 -51.12,-7.8 -65.99,-27.49 -14.87,-19.68 -95.39,31.82 -102.2,98.62 -6.8,66.79 -21.38,31.57 -14.89,-6.71 6.5,-38.27 11.08,-83.24 39.67,-121.86 28.6,-38.62 82.03,-63.8 129.56,-58.96 55.69,5.68 70.76,66.85 64.12,141.98 -4.62,-10.29 -7.62,-46.83 -13.76,-38.27 -8.07,11.26 -24.1,14.8 -36.51,12.69 v 0" /><path
         id="path1453"
         style="fill:none;stroke:#2f2e6b;stroke-width:5.669;stroke-linecap:butt;stroke-linejoin:miter;stroke-miterlimit:22.9256;stroke-dasharray:none;stroke-opacity:1"
         d="m 1377.86,1703.55 c 0,0 20.93,-11.89 51.41,7.1" /><path
         id="path1455"
         style="fill:none;stroke:#ffffff;stroke-width:5.669;stroke-linecap:butt;stroke-linejoin:miter;stroke-miterlimit:22.9256;stroke-dasharray:none;stroke-opacity:1"
         d="m 1343.12,1814.18 c 17.42,1.77 32.68,-8.01 34.09,-21.85 1.4,-13.84 -11.57,-26.5 -28.99,-28.27 -17.41,-1.77 -32.68,8 -34.08,21.85 -1.41,13.84 11.57,26.49 28.98,28.27 z" /><path
         id="path1457"
         style="fill:none;stroke:#2f2e6b;stroke-width:5.669;stroke-linecap:butt;stroke-linejoin:miter;stroke-miterlimit:22.9256;stroke-dasharray:none;stroke-opacity:1"
         d="m 1393.08,1810.44 c -0.03,-19.05 21.22,-52.74 21.38,-59.77 0.21,-9.56 -16.88,-10.7 -16.88,-10.7" /><path
         id="path1459"
         style="fill:none;stroke:#ffffff;stroke-width:5.669;stroke-linecap:butt;stroke-linejoin:miter;stroke-miterlimit:22.9256;stroke-dasharray:none;stroke-opacity:1"
         d="m 1364.69,1810 c 8.4,9.22 27.59,14.66 48.02,8.41" /><path
         id="path1461"
         style="fill:none;stroke:#ffffff;stroke-width:5.669;stroke-linecap:butt;stroke-linejoin:miter;stroke-miterlimit:22.9256;stroke-dasharray:none;stroke-opacity:1"
         d="m 1314.14,1785.91 c 0,0 -52.51,15.21 -91.4,14.85" /><path
         id="path1463"
         style="fill:none;stroke:#ffffff;stroke-width:5.669;stroke-linecap:butt;stroke-linejoin:miter;stroke-miterlimit:22.9256;stroke-dasharray:none;stroke-opacity:1"
         d="m 1431.19,1825.4 c 17.41,1.77 32.67,-8.01 34.09,-21.85 1.41,-13.84 -11.57,-26.5 -28.98,-28.27 -17.42,-1.77 -32.68,8.01 -34.09,21.85 -1.41,13.84 11.57,26.5 28.98,28.27 z" /><path
         id="path1465"
         style="fill:#2f2e6b;fill-opacity:1;fill-rule:evenodd;stroke:none"
         d="m 1428.8,1079.68 c 0,-7.83 -6.34,-14.17 -14.17,-14.17 -7.83,0 -14.17,6.34 -14.17,14.17 v 60.02 c 0,15.42 -6.29,29.42 -16.41,39.54 l -0.06,0.05 c -10.12,10.13 -24.12,16.41 -39.54,16.41 -15.43,0 -29.43,-6.28 -39.55,-16.41 v -0.05 c -10.15,-10.16 -16.46,-24.16 -16.46,-39.54 V 15.9297 c 0,-7.82814 -6.35,-14.16798 -14.18,-14.16798 -7.82,0 -14.17,6.33984 -14.17,14.16798 V 1139.7 c 0,23.21 9.49,44.3 24.77,59.58 l 0.03,-0.03 c 15.31,15.31 36.4,24.8 59.56,24.8 23.14,0 44.22,-9.48 59.53,-24.77 l 0.03,-0.03 0.02,-0.02 c 15.29,-15.31 24.77,-36.39 24.77,-59.53 v -60.02" /><path
         id="path1467"
         style="fill:#e0bd89;fill-opacity:1;fill-rule:evenodd;stroke:none"
         d="m 1452.09,1226.87 c -10.67,9.53 -65.59,63.99 -68.3,65.5 -2.71,1.52 -49.27,8.91 -49.27,8.91 l -53.23,-22.32 c 0,0 16.41,-5.63 22.48,-5.28 6.05,0.34 22.06,8.27 22.06,8.27 l 23.26,-6.44 -21.4,-7.4 c 0,0 -58.2,-27.37 -61.27,-27.78 -3.08,-0.41 10.95,-8.09 19.6,-7.25 8.65,0.85 33.71,9.06 33.71,9.06 0,0 -30.84,-17.6 -34.28,-19.94 1.14,-2.94 7.4,-6.08 12.97,-5.65 l -1.93,-1.95 c 0,0 8.62,-7.14 20.48,-7.91 11.84,-0.76 19.03,2.87 19.03,2.87 0,0 22.11,-7.23 25.97,-7.96 3.85,-0.73 21.55,-10.11 28.71,-14.48 7.17,-4.37 34.12,-15.01 39.79,-14.09 5.67,0.92 16.3,6.88 16.3,6.88 l 5.32,46.96" /><path
         id="path1469"
         style="fill:#f2d291;fill-opacity:1;fill-rule:evenodd;stroke:none"
         d="m 1189.28,1203.56 c 1.21,0.64 20.66,-3.58 22.71,-2.42 20.06,11.38 72.16,42.74 74.94,43.51 3.06,0.84 51.18,-3.13 51.18,-3.13 l 47.53,-35.16 c 0,0 -17.7,-1.61 -23.65,0.2 -5.95,1.82 -19.94,13.61 -19.94,13.61 l -24.7,-0.74 19.49,-12.58 c 0,0 51.23,-41.39 54.19,-42.55 2.96,-1.16 -12.86,-5.38 -21.26,-2.43 -8.41,2.94 -31.34,17.21 -31.34,17.21 0,0 26.41,-25.02 29.26,-28.18 -1.86,-2.66 -8.84,-4.26 -14.28,-2.47 l 1.45,-2.41 c 0,0 -10.33,-5.01 -22.3,-2.88 -11.97,2.12 -18.24,7.48 -18.24,7.48 0,0 -23.75,-1.8 -27.77,-1.6 -4.02,0.21 -23.91,-4.81 -32.09,-7.41 -8.19,-2.6 -37.6,-6.63 -43.02,-4.34 -5.42,2.29 -16.28,5.67 -16.28,5.67 l -5.88,60.62" /><path
         id="path1471"
         style="fill:none;stroke:#2f2e6b;stroke-width:5.669;stroke-linecap:butt;stroke-linejoin:miter;stroke-miterlimit:22.9256;stroke-dasharray:none;stroke-opacity:1"
         d="m 1306.83,1203.16 c 0,0 10.02,-5.58 18.92,-12.94 8.89,-7.35 15.47,-15.34 15.47,-15.34" /><path
         id="path1473"
         style="fill:none;stroke:#2f2e6b;stroke-width:5.669;stroke-linecap:butt;stroke-linejoin:miter;stroke-miterlimit:22.9256;stroke-dasharray:none;stroke-opacity:1"
         d="m 1352.89,1148.4 c -9.4,4.43 -27.11,15.66 -31.82,17.87 -4.7,2.21 -30.94,5.1 -30.94,5.1" /><path
         id="path1475"
         style="fill:#8cb2ef;fill-opacity:1;fill-rule:evenodd;stroke:none"
         d="m 918.547,1225.24 c 74.289,29.82 244.863,-10.32 293.443,-24.1 0.83,-12.02 6.66,-38.22 4.24,-64.53 -65.82,-13.22 -286.917,-43.26 -333.292,-11.31 -2.051,34.71 17.816,93.03 35.609,99.94" /><path
         id="path1477"
         style="fill:#8cb2ef;fill-opacity:1;fill-rule:evenodd;stroke:none"
         d="m 1765.29,1229.64 c -70.47,37.96 -313.68,5.37 -322.1,5.6 -1.48,-23.11 -1.8,-32.36 0.61,-57.43 63.92,-20.54 285.96,-72.64 335.63,-46.1 0.38,27.62 -10.84,78.85 -14.14,97.93" /><path
         id="path1479"
         style="fill:none;stroke:#2f2e6b;stroke-width:5.669;stroke-linecap:butt;stroke-linejoin:miter;stroke-miterlimit:22.9256;stroke-dasharray:none;stroke-opacity:1"
         d="m 1088.47,1637.1 c 0,0 8.27,-159.84 -18.67,-301.87" /><path
         id="path1481"
         style="fill:none;stroke:#2f2e6b;stroke-width:5.669;stroke-linecap:butt;stroke-linejoin:miter;stroke-miterlimit:22.9256;stroke-dasharray:none;stroke-opacity:1"
         d="m 1555.82,1546.76 c 12.35,0 5.96,-149.75 34.55,-237.45" /><path
         id="path1483"
         style="fill:none;stroke:#2f2e6b;stroke-width:5.669;stroke-linecap:butt;stroke-linejoin:miter;stroke-miterlimit:22.9256;stroke-dasharray:none;stroke-opacity:1"
         d="m 1707.35,1272.13 c 0,0 -126.27,-1.58 -50.51,-14.21 75.76,-12.63 94.7,-64.71 83.65,-77.34 -11.05,-12.62 -62.87,66.46 -135.34,66.95 -72.47,0.5 -161.96,-12.29 -161.96,-12.29 0,0 -2.71,-38.07 1.1,-58.63" /><path
         id="path1485"
         style="fill:none;stroke:#2f2e6b;stroke-width:5.669;stroke-linecap:butt;stroke-linejoin:miter;stroke-miterlimit:22.9256;stroke-dasharray:none;stroke-opacity:1"
         d="m 941.844,1248.45 c 0,0 83.656,-9.47 31.566,-12.62 -52.086,-3.16 -56.82,-78.92 -42.613,-56.82 14.207,22.09 96.763,55.62 110.833,54.44 14.08,-1.19 113.78,-18.39 170.36,-32.31 6.31,-38.29 2.29,-63.38 2.29,-63.38" /><path
         id="path1487"
         style="fill:none;stroke:#2f2e6b;stroke-width:5.669;stroke-linecap:butt;stroke-linejoin:miter;stroke-miterlimit:22.9256;stroke-dasharray:none;stroke-opacity:1"
         d="m 1470.91,1237.98 c 0,0 1.41,-55.68 9.48,-70.71" /><path
         id="path1489"
         style="fill:none;stroke:#2f2e6b;stroke-width:5.669;stroke-linecap:butt;stroke-linejoin:miter;stroke-miterlimit:22.9256;stroke-dasharray:none;stroke-opacity:1"
         d="m 1176.95,1209.09 c 0,0 3.32,-52.06 -4.05,-79.97" /><path
         id="path1491"
         style="fill:none;stroke:#2f2e6b;stroke-width:5.669;stroke-linecap:butt;stroke-linejoin:miter;stroke-miterlimit:22.9256;stroke-dasharray:none;stroke-opacity:1"
         d="m 1177.61,1191.08 36.4,-4.68" /><path
         id="path1493"
         style="fill:none;stroke:#2f2e6b;stroke-width:5.669;stroke-linecap:butt;stroke-linejoin:miter;stroke-miterlimit:22.9256;stroke-dasharray:none;stroke-opacity:1"
         d="m 1177.64,1175.06 37.41,-0.64" /><path
         id="path1495"
         style="fill:none;stroke:#2f2e6b;stroke-width:5.669;stroke-linecap:butt;stroke-linejoin:miter;stroke-miterlimit:22.9256;stroke-dasharray:none;stroke-opacity:1"
         d="m 1177.01,1158.42 38.53,-0.18" /><path
         id="path1497"
         style="fill:none;stroke:#2f2e6b;stroke-width:5.669;stroke-linecap:butt;stroke-linejoin:miter;stroke-miterlimit:22.9256;stroke-dasharray:none;stroke-opacity:1"
         d="m 1180.01,1140.81 c -4.68,0.67 34.86,2.1 34.86,2.1" /><path
         id="path1499"
         style="fill:none;stroke:#2f2e6b;stroke-width:5.669;stroke-linecap:butt;stroke-linejoin:miter;stroke-miterlimit:22.9256;stroke-dasharray:none;stroke-opacity:1"
         d="m 1442.54,1224.48 28.87,1.52" /><path
         id="path1501"
         style="fill:none;stroke:#2f2e6b;stroke-width:5.669;stroke-linecap:butt;stroke-linejoin:miter;stroke-miterlimit:22.9256;stroke-dasharray:none;stroke-opacity:1"
         d="m 1442.06,1211.62 30.53,-2.95" /><path
         id="path1503"
         style="fill:none;stroke:#2f2e6b;stroke-width:5.669;stroke-linecap:butt;stroke-linejoin:miter;stroke-miterlimit:22.9256;stroke-dasharray:none;stroke-opacity:1"
         d="m 1442.35,1196.47 32.16,-5.42" /><path
         id="path1505"
         style="fill:none;stroke:#2f2e6b;stroke-width:5.669;stroke-linecap:butt;stroke-linejoin:miter;stroke-miterlimit:22.9256;stroke-dasharray:none;stroke-opacity:1"
         d="m 1443.09,1185.7 33.85,-8.18" /><path
         id="path1507"
         style="fill:#ffffff;fill-opacity:1;fill-rule:evenodd;stroke:none"
         d="m 1108.67,1461.66 66.69,40.69 8.1,4.95 7.62,-5.61 61.24,-45.1 70.37,45.54 8.87,5.74 8.01,-6.85 52.1,-44.51 77.18,42.36 8.81,4.83 7.47,-6.71 52.4,-47.05 -18.94,-21.04 -44.92,40.34 -76.94,-42.23 -8.55,-4.69 -7.45,6.36 -51.52,44.02 -69.73,-45.13 -8.22,-5.33 -7.83,5.77 -61.45,45.26 -58.58,-35.75 -14.73,24.14" /><path
         id="path1509"
         style="fill:#ffffff;fill-opacity:1;fill-rule:evenodd;stroke:none"
         d="m 1108.67,1391.72 66.69,40.69 8.1,4.94 7.62,-5.6 61.24,-45.1 70.37,45.54 8.87,5.74 8.01,-6.85 52.1,-44.51 77.18,42.36 8.81,4.82 7.47,-6.7 52.4,-47.06 -18.94,-21.03 -44.92,40.33 -76.94,-42.22 -8.55,-4.7 -7.45,6.36 -51.52,44.02 -69.73,-45.12 -8.22,-5.33 -7.83,5.77 -61.45,45.25 -58.58,-35.74 -14.73,24.14" /><path
         id="path1511"
         style="fill:none;stroke:#2f2e6b;stroke-width:5.669;stroke-linecap:butt;stroke-linejoin:miter;stroke-miterlimit:22.9256;stroke-dasharray:none;stroke-opacity:1"
         d="m 4012.6,1408.44 c -2.03,18.3 73.2,113.87 101.67,134.21 28.47,20.33 -51.85,43.71 -84.38,-37.62 -32.54,-81.34 -22.37,-19.32 2.03,53.88" /><path
         id="path1513"
         style="fill:none;stroke:#2f2e6b;stroke-width:5.669;stroke-linecap:butt;stroke-linejoin:miter;stroke-miterlimit:22.9256;stroke-dasharray:none;stroke-opacity:1"
         d="m 3541.69,1238.24 c 61.69,64.17 266.51,177.69 328.21,165.35" /><rect
         transform="scale(1,-1)"
         y="-2816.9116"
         x="653.01984"
         height="2807.0325"
         width="5086.7002"
         id="rect6424"
         style="fill:none;fill-opacity:1;stroke-width:68.2016" /></g></g></svg>
